<svg xmlns="http://www.w3.org/2000/svg" width="660" height="660" viewBox="0 0 660 660" version="1.1"><path fill="#000000" opacity="1" d="M40 40C86.7 40 133.3 40 180 40 180 86.7 180 133.3 180 180 133.3 180 86.7 180 40 180 40 133.3 40 86.7 40 40M60 60C60 93.3 60 126.7 60 160 93.3 160 126.7 160 160 160 160 126.7 160 93.3 160 60 126.7 60 93.3 60 60 60ZM200 40C220 40 240 40 260 40 260 46.7 260 53.3 260 60 246.7 60 233.3 60 220 60 220 66.7 220 73.3 220 80 226.7 80 233.3 80 240 80 240 86.7 240 93.3 240 100 226.7 100 213.3 100 200 100 200 80 200 60 200 40ZM300 40C306.7 40 313.3 40 320 40 320 60 320 80 320 100 313.3 100 306.7 100 300 100 300 106.7 300 113.3 300 120 293.3 120 286.7 120 280 120 280 133.3 280 146.7 280 160 273.3 160 266.7 160 260 160 260 166.7 260 173.3 260 180 253.3 180 246.7 180 240 180 240 166.7 240 153.3 240 140 246.7 140 253.3 140 260 140 260 120 260 100 260 80 273.3 80 286.7 80 300 80 300 66.7 300 53.3 300 40ZM380 40C386.7 40 393.3 40 400 40 400 46.7 400 53.3 400 60 393.3 60 386.7 60 380 60 380 53.3 380 46.7 380 40ZM480 40C526.7 40 573.3 40 620 40 620 86.7 620 133.3 620 180 573.3 180 526.7 180 480 180 480 133.3 480 86.7 480 40M500 60C500 93.3 500 126.7 500 160 533.3 160 566.7 160 600 160 600 126.7 600 93.3 600 60 566.7 60 533.3 60 500 60ZM360 60C366.7 60 373.3 60 380 60 380 66.7 380 73.3 380 80 373.3 80 366.7 80 360 80 360 73.3 360 66.7 360 60ZM440 60C446.7 60 453.3 60 460 60 460 66.7 460 73.3 460 80 453.3 80 446.7 80 440 80 440 73.3 440 66.7 440 60ZM80 80C100 80 120 80 140 80 140 100 140 120 140 140 120 140 100 140 80 140 80 120 80 100 80 80ZM400 80C406.7 80 413.3 80 420 80 420 86.7 420 93.3 420 100 413.3 100 406.7 100 400 100 400 93.3 400 86.7 400 80ZM520 80C540 80 560 80 580 80 580 100 580 120 580 140 560 140 540 140 520 140 520 120 520 100 520 80ZM340 100C346.7 100 353.3 100 360 100 360 106.7 360 113.3 360 120 366.7 120 373.3 120 380 120 380 113.3 380 106.7 380 100 386.7 100 393.3 100 400 100 400 106.7 400 113.3 400 120 420 120 440 120 460 120 460 140 460 160 460 180 453.3 180 446.7 180 440 180 440 166.7 440 153.3 440 140 426.7 140 413.3 140 400 140 400 146.7 400 153.3 400 160 393.3 160 386.7 160 380 160 380 153.3 380 146.7 380 140 373.3 140 366.7 140 360 140 360 146.7 360 153.3 360 160 353.3 160 346.7 160 340 160 340 173.3 340 186.7 340 200 333.3 200 326.7 200 320 200 320 206.7 320 213.3 320 220 306.7 220 293.3 220 280 220 280 213.3 280 206.7 280 200 273.3 200 266.7 200 260 200 260 193.3 260 186.7 260 180 266.7 180 273.3 180 280 180 280 173.3 280 166.7 280 160 286.7 160 293.3 160 300 160 300 166.7 300 173.3 300 180 306.7 180 313.3 180 320 180 320 166.7 320 153.3 320 140 326.7 140 333.3 140 340 140 340 126.7 340 113.3 340 100ZM220 120C226.7 120 233.3 120 240 120 240 126.7 240 133.3 240 140 233.3 140 226.7 140 220 140 220 133.3 220 126.7 220 120ZM300 120C306.7 120 313.3 120 320 120 320 126.7 320 133.3 320 140 313.3 140 306.7 140 300 140 300 133.3 300 126.7 300 120ZM200 140C206.7 140 213.3 140 220 140 220 153.3 220 166.7 220 180 226.7 180 233.3 180 240 180 240 193.3 240 206.7 240 220 233.3 220 226.7 220 220 220 220 233.3 220 246.7 220 260 226.7 260 233.3 260 240 260 240 246.7 240 233.3 240 220 246.7 220 253.3 220 260 220 260 226.7 260 233.3 260 240 286.7 240 313.3 240 340 240 340 233.3 340 226.7 340 220 346.7 220 353.3 220 360 220 360 226.7 360 233.3 360 240 373.3 240 386.7 240 400 240 400 233.3 400 226.7 400 220 406.7 220 413.3 220 420 220 420 226.7 420 233.3 420 240 426.7 240 433.3 240 440 240 440 246.7 440 253.3 440 260 446.7 260 453.3 260 460 260 460 266.7 460 273.3 460 280 453.3 280 446.7 280 440 280 440 286.7 440 293.3 440 300 446.7 300 453.3 300 460 300 460 293.3 460 286.7 460 280 466.7 280 473.3 280 480 280 480 286.7 480 293.3 480 300 486.7 300 493.3 300 500 300 500 320 500 340 500 360 493.3 360 486.7 360 480 360 480 373.3 480 386.7 480 400 473.3 400 466.7 400 460 400 460 393.3 460 386.7 460 380 453.3 380 446.7 380 440 380 440 360 440 340 440 320 433.3 320 426.7 320 420 320 420 366.7 420 413.3 420 460 426.7 460 433.3 460 440 460 440 453.3 440 446.7 440 440 453.3 440 466.7 440 480 440 480 426.7 480 413.3 480 400 486.7 400 493.3 400 500 400 500 406.7 500 413.3 500 420 506.7 420 513.3 420 520 420 520 426.7 520 433.3 520 440 526.7 440 533.3 440 540 440 540 446.7 540 453.3 540 460 546.7 460 553.3 460 560 460 560 466.7 560 473.3 560 480 553.3 480 546.7 480 540 480 540 486.7 540 493.3 540 500 546.7 500 553.3 500 560 500 560 506.7 560 513.3 560 520 566.7 520 573.3 520 580 520 580 533.3 580 546.7 580 560 586.7 560 593.3 560 600 560 600 573.3 600 586.7 600 600 593.3 600 586.7 600 580 600 580 593.3 580 586.7 580 580 566.7 580 553.3 580 540 580 540 593.3 540 606.7 540 620 533.3 620 526.7 620 520 620 520 600 520 580 520 560 526.7 560 533.3 560 540 560 540 553.3 540 546.7 540 540 533.3 540 526.7 540 520 540 520 546.7 520 553.3 520 560 513.3 560 506.7 560 500 560 500 553.3 500 546.7 500 540 486.7 540 473.3 540 460 540 460 546.7 460 553.3 460 560 453.3 560 446.7 560 440 560 440 566.7 440 573.3 440 580 433.3 580 426.7 580 420 580 420 586.7 420 593.3 420 600 440 600 460 600 480 600 480 593.3 480 586.7 480 580 473.3 580 466.7 580 460 580 460 573.3 460 566.7 460 560 473.3 560 486.7 560 500 560 500 580 500 600 500 620 466.7 620 433.3 620 400 620 400 606.7 400 593.3 400 580 386.7 580 373.3 580 360 580 360 573.3 360 566.7 360 560 366.7 560 373.3 560 380 560 380 553.3 380 546.7 380 540 400 540 420 540 440 540 440 533.3 440 526.7 440 520 426.7 520 413.3 520 400 520 400 506.7 400 493.3 400 480 393.3 480 386.7 480 380 480 380 466.7 380 453.3 380 440 386.7 440 393.3 440 400 440 400 433.3 400 426.7 400 420 393.3 420 386.7 420 380 420 380 426.7 380 433.3 380 440 373.3 440 366.7 440 360 440 360 433.3 360 426.7 360 420 353.3 420 346.7 420 340 420 340 426.7 340 433.3 340 440 326.7 440 313.3 440 300 440 300 433.3 300 426.7 300 420 293.3 420 286.7 420 280 420 280 426.7 280 433.3 280 440 273.3 440 266.7 440 260 440 260 433.3 260 426.7 260 420 253.3 420 246.7 420 240 420 240 413.3 240 406.7 240 400 233.3 400 226.7 400 220 400 220 406.7 220 413.3 220 420 213.3 420 206.7 420 200 420 200 406.7 200 393.3 200 380 186.7 380 173.3 380 160 380 160 373.3 160 366.7 160 360 180 360 200 360 220 360 220 366.7 220 373.3 220 380 226.7 380 233.3 380 240 380 240 353.3 240 326.7 240 300 226.7 300 213.3 300 200 300 200 313.3 200 326.7 200 340 186.7 340 173.3 340 160 340 160 333.3 160 326.7 160 320 166.7 320 173.3 320 180 320 180 313.3 180 306.7 180 300 173.3 300 166.7 300 160 300 160 293.3 160 286.7 160 280 166.7 280 173.3 280 180 280 180 273.3 180 266.7 180 260 186.7 260 193.3 260 200 260 200 220 200 180 200 140M260 260C260 306.3 260 352.7 260 399 306.3 399 352.7 399 399 399 399 352.7 399 306.3 399 260 352.7 260 306.3 260 260 260M460 320C460 326.7 460 333.3 460 340 466.7 340 473.3 340 480 340 480 333.3 480 326.7 480 320 473.3 320 466.7 320 460 320M460 460C460 480 460 500 460 520 480 520 500 520 520 520 520 500 520 480 520 460 500 460 480 460 460 460ZM360 160C366.7 160 373.3 160 380 160 380 166.7 380 173.3 380 180 373.3 180 366.7 180 360 180 360 173.3 360 166.7 360 160ZM400 160C406.7 160 413.3 160 420 160 420 173.3 420 186.7 420 200 406.7 200 393.3 200 380 200 380 193.3 380 186.7 380 180 386.7 180 393.3 180 400 180 400 173.3 400 166.7 400 160ZM80 200C100 200 120 200 140 200 140 206.7 140 213.3 140 220 146.7 220 153.3 220 160 220 160 226.7 160 233.3 160 240 166.7 240 173.3 240 180 240 180 246.7 180 253.3 180 260 173.3 260 166.7 260 160 260 160 266.7 160 273.3 160 280 146.7 280 133.3 280 120 280 120 286.7 120 293.3 120 300 106.7 300 93.3 300 80 300 80 286.7 80 273.3 80 260 100 260 120 260 140 260 140 253.3 140 246.7 140 240 106.7 240 73.3 240 40 240 40 233.3 40 226.7 40 220 53.3 220 66.7 220 80 220 80 213.3 80 206.7 80 200ZM160 200C166.7 200 173.3 200 180 200 180 206.7 180 213.3 180 220 173.3 220 166.7 220 160 220 160 213.3 160 206.7 160 200ZM420 200C426.7 200 433.3 200 440 200 440 206.7 440 213.3 440 220 433.3 220 426.7 220 420 220 420 213.3 420 206.7 420 200ZM460 200C480 200 500 200 520 200 520 206.7 520 213.3 520 220 526.7 220 533.3 220 540 220 540 233.3 540 246.7 540 260 526.7 260 513.3 260 500 260 500 266.7 500 273.3 500 280 493.3 280 486.7 280 480 280 480 266.7 480 253.3 480 240 466.7 240 453.3 240 440 240 440 233.3 440 226.7 440 220 446.7 220 453.3 220 460 220 460 213.3 460 206.7 460 200ZM560 200C580 200 600 200 620 200 620 213.3 620 226.7 620 240 613.3 240 606.7 240 600 240 600 233.3 600 226.7 600 220 586.7 220 573.3 220 560 220 560 213.3 560 206.7 560 200ZM560 240C566.7 240 573.3 240 580 240 580 246.7 580 253.3 580 260 573.3 260 566.7 260 560 260 560 253.3 560 246.7 560 240ZM540 260C546.7 260 553.3 260 560 260 560 266.7 560 273.3 560 280 553.3 280 546.7 280 540 280 540 273.3 540 266.7 540 260ZM580 260C586.7 260 593.3 260 600 260 600 266.7 600 273.3 600 280 606.7 280 613.3 280 620 280 620 293.3 620 306.7 620 320 613.3 320 606.7 320 600 320 600 313.3 600 306.7 600 300 586.7 300 573.3 300 560 300 560 293.3 560 286.7 560 280 566.7 280 573.3 280 580 280 580 273.3 580 266.7 580 260ZM314.8 265.7C317.5 263.5 320.5 261.7 323.9 261.2 329.7 260.5 335.5 261.5 341.3 260.7 344.7 261.5 348.2 262 351.6 263.2 354.3 264.4 357.6 264.9 359.3 267.6 361 270 363.3 271.8 365.7 273.5 366.8 275.6 368.1 277.7 369.8 279.4 370.5 284.4 374.2 288.4 375.9 293.1 376.5 296.3 377.3 299.5 378.2 302.6 379.1 304.4 379.7 306.2 380.2 308.1 379.5 308.8 378.7 309.5 377.9 310.3 378.4 312.4 378.7 314.6 377.2 316.4 376.3 318.1 376.7 319.8 377.8 321.2 377.2 321.8 376 322.8 375.4 323.4 379 327.4 375.5 333.3 372.1 336.2 371.9 338.4 371.5 340.5 371.4 342.6 371.8 345.4 372.4 348.3 371.6 351.1 370.8 353.9 369.6 356.6 369.1 359.5 370 361.5 369.2 363.7 366.7 363.7 366.1 366.4 364.6 368.6 362.6 370.4 362.5 371.9 362.3 373.3 362.2 374.7 360.7 374.7 359.3 374.3 358 373.6 358 375.1 358.3 377 356.4 377.3 356.3 377.9 356.2 379.2 356.1 379.9 353.1 383.3 350.7 387.5 346.8 390.1 343.4 392.4 340.5 395.9 336.2 396.7 332.4 397.3 328.5 398.3 324.5 397.9 321.8 396.8 319.1 396 316.4 394.7 315.2 394.1 313.4 394.9 312.5 393.7 311.7 390.3 308.2 389 306.2 386.5 304.4 388.4 302.6 387 300.9 386 300.8 383.6 301.8 381.1 300.7 378.9 299.4 380.1 298 381.3 296.1 381.1 296 378.8 295.9 376.5 296.5 374.3 295.6 373.6 294.7 373 293.8 372.3 293.4 370.7 292.9 369 291.1 368.5 291 367.2 291 365.8 290.9 364.5 289.2 364.4 287 365.2 286.1 363.1 286.7 361.4 288.4 360.9 289.9 360.3 287.3 355.2 285.9 349.5 285.1 343.9 284.9 342.6 284.1 341.5 283.4 340.4 284 335.5 284.2 330.7 283.4 325.8 284.2 325.8 285.8 325.7 286.6 325.6 286.6 324.1 286.6 322.5 286.7 321 285.9 318.6 284.3 316.6 281.7 315.9 281.6 314.6 281.5 313.3 281.5 312.1 282.5 311.6 283.5 311.3 284.6 311.4 286.2 310.3 288 309.4 289.8 308.7 291 304.6 289.1 300.2 291.7 296.5 292.6 292.4 294.7 288.6 295.3 284.4 297.4 281.3 300.2 278.5 302.7 275.7 304.8 270.4 310.8 269 314.8 265.7M339.6 278C338.8 279.1 338.5 280.6 337.3 281.4 335.1 281.7 332.9 281.4 330.7 281.3 328.3 282.6 325.5 282.6 322.9 283.1 321.5 284.5 320.3 286.6 318 286.7 316.9 289.5 317 293.1 314.1 294.8 313.3 294.4 312.6 294 311.9 293.4 310.5 294.8 309 296.5 306.9 297 305.5 296.7 304 295.5 302.9 297.1 297.8 302.8 297 310.8 295.2 317.9 295.1 321.8 293.2 325.4 293.4 329.4 292.9 332.4 293.3 335.8 291.3 338.4 288.9 344.7 290.6 352.6 295.4 357.3 295.6 358.8 295.6 360.4 296.2 361.8 297 363.2 299.2 362.8 300.1 364.2 301.4 366.3 303 368.4 303.7 370.8 304.1 371.2 305 371.9 305.5 372.3 305.5 372.7 305.7 373.5 305.7 373.9 306 373.5 306.4 372.6 306.7 372.1 306.3 371 306 369.9 305.7 368.7 307.5 368.2 309.1 368.6 310.6 369.7 309.7 373 311.5 376.1 312.8 379 314.7 382.9 318.8 384.8 322.5 386.6 327.3 388.7 332.7 386.7 337.8 387.4 340 385.9 342.7 384.6 344 382 345.8 379.4 346.7 375.4 350.5 375.2 350.8 374.9 351.4 374.3 351.7 374 352.5 374 354.1 374 354.9 374 355.6 372.9 356 371.7 356.9 370.9 360.8 368.6 362.7 364.4 365.1 360.8 366.8 358.8 364.9 356.5 364.9 354.4 368.8 353.3 367.7 348.3 368.7 345.3 370.3 340.8 370.2 336 371.5 331.4 371.6 327.1 371.4 322.8 371.6 318.4 372.2 312.8 372.4 306.8 370.3 301.5 367.9 298.4 366.7 294.3 363.4 291.9 361.1 287.1 355.5 286.2 351.2 284 347.7 281.3 343.9 279 339.6 278M287.6 328.6C287 330.6 286.5 332.7 285.6 334.6 285.3 337.1 284.9 339.9 286.8 341.8 287.7 338.7 287.8 335.3 288.7 332.1 289.3 330.8 288.2 329.6 287.6 328.6ZM40 280C46.7 280 53.3 280 60 280 60 293.3 60 306.7 60 320 73.3 320 86.7 320 100 320 100 326.7 100 333.3 100 340 86.7 340 73.3 340 60 340 60 380 60 420 60 460 53.3 460 46.7 460 40 460 40 400 40 340 40 280ZM317.5 289.5C318.5 289.3 319.5 289.1 320.6 288.9 321.1 289.3 322 290 322.5 290.4 322.7 292.2 322.9 294 323 295.9 322.2 295.9 320.6 296 319.8 296.1 319.6 294.9 319.5 293.6 319.4 292.4 318.8 291.4 318.1 290.5 317.5 289.5ZM120 300C133.3 300 146.7 300 160 300 160 306.7 160 313.3 160 320 146.7 320 133.3 320 120 320 120 313.3 120 306.7 120 300ZM520 300C533.3 300 546.7 300 560 300 560 306.7 560 313.3 560 320 546.7 320 533.3 320 520 320 520 313.3 520 306.7 520 300ZM303.7 313.2C306.1 312 308.2 309.7 311 309.5 318 310.7 325.1 312.7 330.6 317.4 331.7 318.1 332 319.4 332.4 320.5 333.5 321.7 334.6 323 335.6 324.3 335 326.8 334.9 329.4 334.2 331.9 334.4 334.2 331.8 333.3 330.6 332.9 329.2 333.8 325.9 334 326.5 331.6 326.8 328.9 329.7 329.1 330.9 331 330.2 328 331 324.1 328.5 321.7 328 323.9 325.6 323.3 324.1 323.7 323.8 322.9 323.2 321.4 322.9 320.7 322.2 321.5 321.5 322.2 320.7 323 318.2 323 314.5 323.8 314.1 320.3 311.8 323.1 308 323 304.9 324 302.8 320.5 307.8 320.1 309.5 318 311.4 316.2 314.6 318 316.3 315.9 314.9 315.3 313.6 314.8 312.2 314.2 310 314.9 307.8 315.5 306 316.9 303.7 317.7 303.1 314.8 303.7 313.2ZM358.4 320.5C358.6 317.3 363.1 318.9 365.2 317.5 367.7 319.6 369.8 322.6 368.9 326.1 366.4 326.1 364.5 324.2 362.3 323.2 361.7 323.6 360.5 324.4 359.9 324.8 363.6 324.7 365.3 328.3 365.8 331.3 365.4 331.7 364.5 332.5 364.1 332.9 361.8 331.4 359.1 330.1 358.5 327.2 358 331.3 352.9 329.2 350.6 327.7 348.6 328 345.8 328.8 345.2 326.1 344.4 329.3 343.5 332.4 344.4 335.7 342.9 338.5 341.2 335.3 341.1 333.6 341.1 332.5 341.2 331.5 341.2 330.5 341.6 327.1 341.3 321.3 346.2 321.8 349.4 319.1 354.9 317.5 358.4 320.5ZM311.4 326.1C313.9 326.5 318.6 324.4 319.2 328.1 316.7 328.8 314.1 328.4 311.6 328.5 311.5 327.9 311.4 326.7 311.4 326.1ZM348.5 329.2C352.2 330.7 356.2 332 359.6 334 359.5 334.5 359.3 335.5 359.1 336 356.4 336.1 353.9 334.8 351.5 333.6 349.9 332.7 347.6 331.6 348.5 329.2ZM325.4 335.5C327.5 335.6 329.6 335.5 331.3 334.1 333.9 336.1 331.7 339.5 330 341.2 329.5 340.5 328.5 339 328 338.3 326 339.6 324.5 341.4 323 343.1 319.5 340.7 322.7 336.8 325.4 335.5ZM293.1 336.5C293.7 336.5 295 336.5 295.6 336.5 295.4 339.5 295.5 342.7 294.5 345.6 293.9 345.7 292.7 346 292.1 346.1 291.7 342.8 293.1 339.7 293.1 336.5ZM343.2 338.2C344.9 338.5 346.5 339.1 347.8 340.3 347.6 340.8 347.2 341.8 347 342.2 345.6 341.9 344.2 341.4 342.9 340.9 343 340.2 343.2 338.8 343.2 338.2ZM120 340C133.3 340 146.7 340 160 340 160 346.7 160 353.3 160 360 146.7 360 133.3 360 120 360 120 353.3 120 346.7 120 340ZM540 340C546.7 340 553.3 340 560 340 560 346.7 560 353.3 560 360 566.7 360 573.3 360 580 360 580 366.7 580 373.3 580 380 593.3 380 606.7 380 620 380 620 386.7 620 393.3 620 400 600 400 580 400 560 400 560 413.3 560 426.7 560 440 553.3 440 546.7 440 540 440 540 426.7 540 413.3 540 400 526.7 400 513.3 400 500 400 500 393.3 500 386.7 500 380 513.3 380 526.7 380 540 380 540 366.7 540 353.3 540 340ZM325.5 343.6C329.3 344.2 332 347.7 334.9 350 337.2 349.4 339.4 348 341.9 348.6 345.1 349.7 347.6 352.3 351 353 352.1 353.2 353.1 353.7 354 354.5 354.7 354.5 356 354.5 356.7 354.5 357.1 354.9 357.8 355.8 358.1 356.2 357.9 358 358.1 360.3 356.4 361.4 354.5 362 352.8 361 351.4 359.9 348.9 360.4 347 363.1 344.3 362.3 343.2 366 338.6 367.5 335.1 367.3 333.5 367 331.5 368.2 330.4 366.6 330.1 363.2 334.3 365 336.2 365.1 335.1 364.3 333.8 363.6 333.7 362 337.1 362.1 340.4 361.9 343.8 361.7 344.2 360.5 344.8 359.3 345 358.1 342.4 355 337.7 356.6 334.5 354.4 330.6 354.2 326.7 355 322.9 353.8 321 353.2 318.8 352.8 317.2 354.3 319.1 355.6 320.2 357.9 322.4 358.8 324.5 359.3 326.6 359.7 328.7 360.2 329 361.8 329.3 363.3 329.6 364.9 328.3 366.2 326.8 364.9 325.5 364.2 320.5 360.9 314.6 358.1 312.5 352 312.3 352.5 311.9 353.4 311.8 353.9 310.5 353.9 309.3 353.9 308.1 353.9 308 353.2 307.6 351.7 307.5 351 308 349.9 308.5 348.8 309.2 347.7 310.5 347.1 312.1 347.6 313.5 347.8 316.4 346.7 319.5 347.2 322.5 347.1 323.7 346.1 324.8 345 325.5 343.6ZM350.2 345.5C350.8 345.5 351.8 345.6 352.4 345.6 353.2 346.5 354.1 347.4 355 348.3 355 349 355 350.6 355 351.3 352.4 350.5 350.9 348 350.2 345.5ZM303.1 347.1C303.8 347.1 305.2 347.1 306 347.1 305.9 347.8 305.9 349.2 305.9 349.9 305.2 349.9 303.8 349.9 303.1 349.9 303.1 349.2 303.1 347.8 303.1 347.1ZM303.7 358.6C306.9 355.1 308.2 364.8 303.9 363 303.3 361.6 303.3 360 303.7 358.6ZM357.6 363.1C360.4 364.5 358 367 356.7 368.6 356 368.6 354.8 368.4 354.2 368.4 354.8 366.3 356.2 364.6 357.6 363.1ZM322.3 370.9C320.4 370.1 318.2 367.6 320.7 366.1 324.4 367.5 327.6 369.6 331.3 370.9 334.8 371.2 338.3 370.9 341.9 371.1 341.9 371.7 341.9 373 342 373.6 339.2 375.8 335.8 375.4 332.5 375.8 331.1 375.7 329.5 376.3 328.2 375.6 327.2 374.3 327.5 372.6 327.2 371.1 326.3 374 323.8 371.6 322.3 370.9ZM120 380C133.3 380 146.7 380 160 380 160 386.7 160 393.3 160 400 166.7 400 173.3 400 180 400 180 406.7 180 413.3 180 420 173.3 420 166.7 420 160 420 160 426.7 160 433.3 160 440 146.7 440 133.3 440 120 440 120 420 120 400 120 380ZM80 400C86.7 400 93.3 400 100 400 100 406.7 100 413.3 100 420 93.3 420 86.7 420 80 420 80 413.3 80 406.7 80 400ZM440 400C446.7 400 453.3 400 460 400 460 406.7 460 413.3 460 420 453.3 420 446.7 420 440 420 440 413.3 440 406.7 440 400ZM180 420C186.7 420 193.3 420 200 420 200 426.7 200 433.3 200 440 193.3 440 186.7 440 180 440 180 433.3 180 426.7 180 420ZM220 420C226.7 420 233.3 420 240 420 240 426.7 240 433.3 240 440 233.3 440 226.7 440 220 440 220 433.3 220 426.7 220 420ZM600 420C606.7 420 613.3 420 620 420 620 426.7 620 433.3 620 440 613.3 440 606.7 440 600 440 600 433.3 600 426.7 600 420ZM160 440C166.7 440 173.3 440 180 440 180 446.7 180 453.3 180 460 173.3 460 166.7 460 160 460 160 453.3 160 446.7 160 440ZM200 440C206.7 440 213.3 440 220 440 220 453.3 220 466.7 220 480 213.3 480 206.7 480 200 480 200 466.7 200 453.3 200 440ZM240 440C246.7 440 253.3 440 260 440 260 453.3 260 466.7 260 480 253.3 480 246.7 480 240 480 240 466.7 240 453.3 240 440ZM560 440C573.3 440 586.7 440 600 440 600 446.7 600 453.3 600 460 606.7 460 613.3 460 620 460 620 466.7 620 473.3 620 480 606.7 480 593.3 480 580 480 580 473.3 580 466.7 580 460 573.3 460 566.7 460 560 460 560 453.3 560 446.7 560 440ZM280 460C293.3 460 306.7 460 320 460 320 466.7 320 473.3 320 480 306.7 480 293.3 480 280 480 280 473.3 280 466.7 280 460ZM40 480C86.7 480 133.3 480 180 480 180 526.7 180 573.3 180 620 133.3 620 86.7 620 40 620 40 573.3 40 526.7 40 480M60 500C60 533.3 60 566.7 60 600 93.3 600 126.7 600 160 600 160 566.7 160 533.3 160 500 126.7 500 93.3 500 60 500ZM260 480C266.7 480 273.3 480 280 480 280 486.7 280 493.3 280 500 273.3 500 266.7 500 260 500 260 493.3 260 486.7 260 480ZM320 480C340 480 360 480 380 480 380 486.7 380 493.3 380 500 373.3 500 366.7 500 360 500 360 513.3 360 526.7 360 540 346.7 540 333.3 540 320 540 320 533.3 320 526.7 320 520 313.3 520 306.7 520 300 520 300 533.3 300 546.7 300 560 313.3 560 326.7 560 340 560 340 566.7 340 573.3 340 580 320 580 300 580 280 580 280 593.3 280 606.7 280 620 273.3 620 266.7 620 260 620 260 613.3 260 606.7 260 600 253.3 600 246.7 600 240 600 240 586.7 240 573.3 240 560 246.7 560 253.3 560 260 560 260 553.3 260 546.7 260 540 266.7 540 273.3 540 280 540 280 526.7 280 513.3 280 500 293.3 500 306.7 500 320 500 320 493.3 320 486.7 320 480ZM480 480C486.7 480 493.3 480 500 480 500 486.7 500 493.3 500 500 493.3 500 486.7 500 480 500 480 493.3 480 486.7 480 480ZM220 500C226.7 500 233.3 500 240 500 240 506.7 240 513.3 240 520 233.3 520 226.7 520 220 520 220 513.3 220 506.7 220 500ZM580 500C586.7 500 593.3 500 600 500 600 506.7 600 513.3 600 520 593.3 520 586.7 520 580 520 580 513.3 580 506.7 580 500ZM80 520C100 520 120 520 140 520 140 540 140 560 140 580 120 580 100 580 80 580 80 560 80 540 80 520ZM200 520C206.7 520 213.3 520 220 520 220 526.7 220 533.3 220 540 226.7 540 233.3 540 240 540 240 546.7 240 553.3 240 560 233.3 560 226.7 560 220 560 220 566.7 220 573.3 220 580 213.3 580 206.7 580 200 580 200 560 200 540 200 520ZM240 520C246.7 520 253.3 520 260 520 260 526.7 260 533.3 260 540 253.3 540 246.7 540 240 540 240 533.3 240 526.7 240 520ZM600 520C606.7 520 613.3 520 620 520 620 526.7 620 533.3 620 540 613.3 540 606.7 540 600 540 600 533.3 600 526.7 600 520ZM340 580C346.7 580 353.3 580 360 580 360 586.7 360 593.3 360 600 353.3 600 346.7 600 340 600 340 593.3 340 586.7 340 580ZM360 600C366.7 600 373.3 600 380 600 380 606.7 380 613.3 380 620 373.3 620 366.7 620 360 620 360 613.3 360 606.7 360 600ZM560 600C566.7 600 573.3 600 580 600 580 606.7 580 613.3 580 620 573.3 620 566.7 620 560 620 560 613.3 560 606.7 560 600Z"/></svg>