<svg xmlns="http://www.w3.org/2000/svg" width="740" height="740" viewBox="0 0 740 740" version="1.1"><path fill="#330033" opacity="1" d="M40 40C86.7 40 133.3 40 180 40 180 86.7 180 133.3 180 180 133.3 180 86.7 180 40 180 40 133.3 40 86.7 40 40M60 60C60 93.3 60 126.7 60 160 93.3 160 126.7 160 160 160 160 126.7 160 93.3 160 60 126.7 60 93.3 60 60 60ZM200 40C206.7 40 213.3 40 220 40 220 46.7 220 53.3 220 60 213.3 60 206.7 60 200 60 200 53.3 200 46.7 200 40ZM240 40C260 40 280 40 300 40 300 46.7 300 53.3 300 60 306.7 60 313.3 60 320 60 320 66.7 320 73.3 320 80 326.7 80 333.3 80 340 80 340 73.3 340 66.7 340 60 333.3 60 326.7 60 320 60 320 53.3 320 46.7 320 40 360 40 400 40 440 40 440 46.7 440 53.3 440 60 446.7 60 453.3 60 460 60 460 66.7 460 73.3 460 80 466.7 80 473.3 80 480 80 480 66.7 480 53.3 480 40 486.7 40 493.3 40 500 40 500 53.3 500 66.7 500 80 506.7 80 513.3 80 520 80 520 86.7 520 93.3 520 100 526.7 100 533.3 100 540 100 540 106.7 540 113.3 540 120 526.7 120 513.3 120 500 120 500 113.3 500 106.7 500 100 493.3 100 486.7 100 480 100 480 120 480 140 480 160 473.3 160 466.7 160 460 160 460 166.7 460 173.3 460 180 453.3 180 446.7 180 440 180 440 166.7 440 153.3 440 140 433.3 140 426.7 140 420 140 420 153.3 420 166.7 420 180 413.3 180 406.7 180 400 180 400 173.3 400 166.7 400 160 393.3 160 386.7 160 380 160 380 166.7 380 173.3 380 180 373.3 180 366.7 180 360 180 360 173.3 360 166.7 360 160 353.3 160 346.7 160 340 160 340 153.3 340 146.7 340 140 346.7 140 353.3 140 360 140 360 133.3 360 126.7 360 120 346.7 120 333.3 120 320 120 320 113.3 320 106.7 320 100 313.3 100 306.7 100 300 100 300 113.3 300 126.7 300 140 293.3 140 286.7 140 280 140 280 126.7 280 113.3 280 100 273.3 100 266.7 100 260 100 260 113.3 260 126.7 260 140 253.3 140 246.7 140 240 140 240 133.3 240 126.7 240 120 233.3 120 226.7 120 220 120 220 113.3 220 106.7 220 100 213.3 100 206.7 100 200 100 200 93.3 200 86.7 200 80 213.3 80 226.7 80 240 80 240 66.7 240 53.3 240 40M400 60C400 66.7 400 73.3 400 80 406.7 80 413.3 80 420 80 420 73.3 420 66.7 420 60 413.3 60 406.7 60 400 60M360 80C360 86.7 360 93.3 360 100 366.7 100 373.3 100 380 100 380 113.3 380 126.7 380 140 386.7 140 393.3 140 400 140 400 120 400 100 400 80 386.7 80 373.3 80 360 80M420 80C420 93.3 420 106.7 420 120 426.7 120 433.3 120 440 120 440 106.7 440 93.3 440 80 433.3 80 426.7 80 420 80ZM520 40C526.7 40 533.3 40 540 40 540 46.7 540 53.3 540 60 533.3 60 526.7 60 520 60 520 53.3 520 46.7 520 40ZM560 40C606.7 40 653.3 40 700 40 700 86.7 700 133.3 700 180 653.3 180 606.7 180 560 180 560 133.3 560 86.7 560 40M580 60C580 93.3 580 126.7 580 160 613.3 160 646.7 160 680 160 680 126.7 680 93.3 680 60 646.7 60 613.3 60 580 60ZM80 80C100 80 120 80 140 80 140 100 140 120 140 140 120 140 100 140 80 140 80 120 80 100 80 80ZM600 80C620 80 640 80 660 80 660 100 660 120 660 140 640 140 620 140 600 140 600 120 600 100 600 80ZM200 120C206.7 120 213.3 120 220 120 220 126.7 220 133.3 220 140 213.3 140 206.7 140 200 140 200 133.3 200 126.7 200 120ZM260 140C266.7 140 273.3 140 280 140 280 146.7 280 153.3 280 160 273.3 160 266.7 160 260 160 260 153.3 260 146.7 260 140ZM500 140C513.3 140 526.7 140 540 140 540 153.3 540 166.7 540 180 533.3 180 526.7 180 520 180 520 173.3 520 166.7 520 160 513.3 160 506.7 160 500 160 500 153.3 500 146.7 500 140ZM200 160C206.7 160 213.3 160 220 160 220 173.3 220 186.7 220 200 213.3 200 206.7 200 200 200 200 186.7 200 173.3 200 160ZM240 160C246.7 160 253.3 160 260 160 260 166.7 260 173.3 260 180 266.7 180 273.3 180 280 180 280 186.7 280 193.3 280 200 273.3 200 266.7 200 260 200 260 206.7 260 213.3 260 220 253.3 220 246.7 220 240 220 240 226.7 240 233.3 240 240 233.3 240 226.7 240 220 240 220 226.7 220 213.3 220 200 226.7 200 233.3 200 240 200 240 186.7 240 173.3 240 160ZM280 160C286.7 160 293.3 160 300 160 300 166.7 300 173.3 300 180 293.3 180 286.7 180 280 180 280 173.3 280 166.7 280 160ZM320 160C326.7 160 333.3 160 340 160 340 173.3 340 186.7 340 200 326.7 200 313.3 200 300 200 300 193.3 300 186.7 300 180 306.7 180 313.3 180 320 180 320 173.3 320 166.7 320 160ZM480 160C486.7 160 493.3 160 500 160 500 166.7 500 173.3 500 180 493.3 180 486.7 180 480 180 480 173.3 480 166.7 480 160ZM420 180C426.7 180 433.3 180 440 180 440 186.7 440 193.3 440 200 433.3 200 426.7 200 420 200 420 193.3 420 186.7 420 180ZM500 180C506.7 180 513.3 180 520 180 520 200 520 220 520 240 506.7 240 493.3 240 480 240 480 226.7 480 213.3 480 200 486.7 200 493.3 200 500 200 500 193.3 500 186.7 500 180ZM140 200C153.3 200 166.7 200 180 200 180 206.7 180 213.3 180 220 166.7 220 153.3 220 140 220 140 213.3 140 206.7 140 200ZM380 200C393.3 200 406.7 200 420 200 420 206.7 420 213.3 420 220 426.7 220 433.3 220 440 220 440 213.3 440 206.7 440 200 446.7 200 453.3 200 460 200 460 213.3 460 226.7 460 240 446.7 240 433.3 240 420 240 420 246.7 420 253.3 420 260 433.3 260 446.7 260 460 260 460 253.3 460 246.7 460 240 466.7 240 473.3 240 480 240 480 246.7 480 253.3 480 260 493.3 260 506.7 260 520 260 520 253.3 520 246.7 520 240 526.7 240 533.3 240 540 240 540 233.3 540 226.7 540 220 546.7 220 553.3 220 560 220 560 226.7 560 233.3 560 240 566.7 240 573.3 240 580 240 580 233.3 580 226.7 580 220 586.7 220 593.3 220 600 220 600 213.3 600 206.7 600 200 606.7 200 613.3 200 620 200 620 213.3 620 226.7 620 240 613.3 240 606.7 240 600 240 600 266.7 600 293.3 600 320 586.7 320 573.3 320 560 320 560 306.7 560 293.3 560 280 566.7 280 573.3 280 580 280 580 273.3 580 266.7 580 260 566.7 260 553.3 260 540 260 540 273.3 540 286.7 540 300 533.3 300 526.7 300 520 300 520 306.7 520 313.3 520 320 513.3 320 506.7 320 500 320 500 326.7 500 333.3 500 340 493.3 340 486.7 340 480 340 480 346.7 480 353.3 480 360 486.7 360 493.3 360 500 360 500 366.7 500 373.3 500 380 493.3 380 486.7 380 480 380 480 393.3 480 406.7 480 420 486.7 420 493.3 420 500 420 500 406.7 500 393.3 500 380 506.7 380 513.3 380 520 380 520 373.3 520 366.7 520 360 513.3 360 506.7 360 500 360 500 353.3 500 346.7 500 340 506.7 340 513.3 340 520 340 520 333.3 520 326.7 520 320 526.7 320 533.3 320 540 320 540 326.7 540 333.3 540 340 546.7 340 553.3 340 560 340 560 353.3 560 366.7 560 380 566.7 380 573.3 380 580 380 580 366.7 580 353.3 580 340 593.3 340 606.7 340 620 340 620 306.7 620 273.3 620 240 640 240 660 240 680 240 680 253.3 680 266.7 680 280 666.7 280 653.3 280 640 280 640 286.7 640 293.3 640 300 646.7 300 653.3 300 660 300 660 306.7 660 313.3 660 320 666.7 320 673.3 320 680 320 680 333.3 680 346.7 680 360 686.7 360 693.3 360 700 360 700 386.7 700 413.3 700 440 680 440 660 440 640 440 640 446.7 640 453.3 640 460 633.3 460 626.7 460 620 460 620 466.7 620 473.3 620 480 613.3 480 606.7 480 600 480 600 486.7 600 493.3 600 500 606.7 500 613.3 500 620 500 620 493.3 620 486.7 620 480 640 480 660 480 680 480 680 486.7 680 493.3 680 500 673.3 500 666.7 500 660 500 660 506.7 660 513.3 660 520 653.3 520 646.7 520 640 520 640 533.3 640 546.7 640 560 633.3 560 626.7 560 620 560 620 580 620 600 620 620 626.7 620 633.3 620 640 620 640 626.7 640 633.3 640 640 646.7 640 653.3 640 660 640 660 626.7 660 613.3 660 600 653.3 600 646.7 600 640 600 640 593.3 640 586.7 640 580 646.7 580 653.3 580 660 580 660 566.7 660 553.3 660 540 673.3 540 686.7 540 700 540 700 546.7 700 553.3 700 560 693.3 560 686.7 560 680 560 680 586.7 680 613.3 680 640 686.7 640 693.3 640 700 640 700 646.7 700 653.3 700 660 686.7 660 673.3 660 660 660 660 666.7 660 673.3 660 680 653.3 680 646.7 680 640 680 640 686.7 640 693.3 640 700 633.3 700 626.7 700 620 700 620 686.7 620 673.3 620 660 613.3 660 606.7 660 600 660 600 653.3 600 646.7 600 640 593.3 640 586.7 640 580 640 580 633.3 580 626.7 580 620 566.7 620 553.3 620 540 620 540 633.3 540 646.7 540 660 533.3 660 526.7 660 520 660 520 653.3 520 646.7 520 640 513.3 640 506.7 640 500 640 500 633.3 500 626.7 500 620 506.7 620 513.3 620 520 620 520 613.3 520 606.7 520 600 513.3 600 506.7 600 500 600 500 606.7 500 613.3 500 620 493.3 620 486.7 620 480 620 480 626.7 480 633.3 480 640 473.3 640 466.7 640 460 640 460 626.7 460 613.3 460 600 453.3 600 446.7 600 440 600 440 606.7 440 613.3 440 620 433.3 620 426.7 620 420 620 420 613.3 420 606.7 420 600 413.3 600 406.7 600 400 600 400 606.7 400 613.3 400 620 393.3 620 386.7 620 380 620 380 626.7 380 633.3 380 640 373.3 640 366.7 640 360 640 360 633.3 360 626.7 360 620 353.3 620 346.7 620 340 620 340 613.3 340 606.7 340 600 346.7 600 353.3 600 360 600 360 586.7 360 573.3 360 560 353.3 560 346.7 560 340 560 340 573.3 340 586.7 340 600 326.7 600 313.3 600 300 600 300 593.3 300 586.7 300 580 306.7 580 313.3 580 320 580 320 573.3 320 566.7 320 560 313.3 560 306.7 560 300 560 300 566.7 300 573.3 300 580 293.3 580 286.7 580 280 580 280 566.7 280 553.3 280 540 286.7 540 293.3 540 300 540 300 533.3 300 526.7 300 520 313.3 520 326.7 520 340 520 340 513.3 340 506.7 340 500 346.7 500 353.3 500 360 500 360 513.3 360 526.7 360 540 373.3 540 386.7 540 400 540 400 533.3 400 526.7 400 520 393.3 520 386.7 520 380 520 380 513.3 380 506.7 380 500 373.3 500 366.7 500 360 500 360 493.3 360 486.7 360 480 340 480 320 480 300 480 300 493.3 300 506.7 300 520 280 520 260 520 240 520 240 506.7 240 493.3 240 480 233.3 480 226.7 480 220 480 220 473.3 220 466.7 220 460 233.3 460 246.7 460 260 460 260 453.3 260 446.7 260 440 253.3 440 246.7 440 240 440 240 433.3 240 426.7 240 420 246.7 420 253.3 420 260 420 260 393.3 260 366.7 260 340 253.3 340 246.7 340 240 340 240 346.7 240 353.3 240 360 233.3 360 226.7 360 220 360 220 353.3 220 346.7 220 340 213.3 340 206.7 340 200 340 200 320 200 300 200 280 193.3 280 186.7 280 180 280 180 273.3 180 266.7 180 260 206.7 260 233.3 260 260 260 260 253.3 260 246.7 260 240 266.7 240 273.3 240 280 240 280 246.7 280 253.3 280 260 286.7 260 293.3 260 300 260 300 253.3 300 246.7 300 240 313.3 240 326.7 240 340 240 340 246.7 340 253.3 340 260 346.7 260 353.3 260 360 260 360 253.3 360 246.7 360 240 353.3 240 346.7 240 340 240 340 233.3 340 226.7 340 220 353.3 220 366.7 220 380 220 380 213.3 380 206.7 380 200M220 280C220 286.7 220 293.3 220 300 226.7 300 233.3 300 240 300 240 306.7 240 313.3 240 320 246.7 320 253.3 320 260 320 260 306.7 260 293.3 260 280 246.7 280 233.3 280 220 280M305.5 293.5C305.5 342 305.4 390.5 305.5 439 347 439 388.5 439 430 439 430 405.3 430 371.5 430 337.7 415.2 323 400.5 308.2 385.7 293.5 359 293.6 332.2 293.5 305.5 293.5M620 360C620 366.7 620 373.3 620 380 613.3 380 606.7 380 600 380 600 386.7 600 393.3 600 400 580 400 560 400 540 400 540 406.7 540 413.3 540 420 546.7 420 553.3 420 560 420 560 426.7 560 433.3 560 440 553.3 440 546.7 440 540 440 540 453.3 540 466.7 540 480 533.3 480 526.7 480 520 480 520 473.3 520 466.7 520 460 513.3 460 506.7 460 500 460 500 466.7 500 473.3 500 480 493.3 480 486.7 480 480 480 480 486.7 480 493.3 480 500 473.3 500 466.7 500 460 500 460 493.3 460 486.7 460 480 453.3 480 446.7 480 440 480 440 493.3 440 506.7 440 520 446.7 520 453.3 520 460 520 460 526.7 460 533.3 460 540 466.7 540 473.3 540 480 540 480 546.7 480 553.3 480 560 486.7 560 493.3 560 500 560 500 553.3 500 546.7 500 540 506.7 540 513.3 540 520 540 520 533.3 520 526.7 520 520 540 520 560 520 580 520 580 486.7 580 453.3 580 420 593.3 420 606.7 420 620 420 620 413.3 620 406.7 620 400 633.3 400 646.7 400 660 400 660 386.7 660 373.3 660 360 646.7 360 633.3 360 620 360M660 400C660 406.7 660 413.3 660 420 666.7 420 673.3 420 680 420 680 413.3 680 406.7 680 400 673.3 400 666.7 400 660 400M480 440C480 446.7 480 453.3 480 460 486.7 460 493.3 460 500 460 500 453.3 500 446.7 500 440 493.3 440 486.7 440 480 440M260 480C260 486.7 260 493.3 260 500 266.7 500 273.3 500 280 500 280 493.3 280 486.7 280 480 273.3 480 266.7 480 260 480M540 540C540 560 540 580 540 600 560 600 580 600 600 600 600 580 600 560 600 540 580 540 560 540 540 540M380 560C380 566.7 380 573.3 380 580 386.7 580 393.3 580 400 580 400 573.3 400 566.7 400 560 393.3 560 386.7 560 380 560M440 560C440 566.7 440 573.3 440 580 453.3 580 466.7 580 480 580 480 573.3 480 566.7 480 560 466.7 560 453.3 560 440 560ZM560 200C566.7 200 573.3 200 580 200 580 206.7 580 213.3 580 220 573.3 220 566.7 220 560 220 560 213.3 560 206.7 560 200ZM640 200C646.7 200 653.3 200 660 200 660 206.7 660 213.3 660 220 653.3 220 646.7 220 640 220 640 213.3 640 206.7 640 200ZM680 200C686.7 200 693.3 200 700 200 700 206.7 700 213.3 700 220 693.3 220 686.7 220 680 220 680 213.3 680 206.7 680 200ZM40 220C53.3 220 66.7 220 80 220 80 226.7 80 233.3 80 240 73.3 240 66.7 240 60 240 60 246.7 60 253.3 60 260 73.3 260 86.7 260 100 260 100 266.7 100 273.3 100 280 86.7 280 73.3 280 60 280 60 286.7 60 293.3 60 300 73.3 300 86.7 300 100 300 100 306.7 100 313.3 100 320 93.3 320 86.7 320 80 320 80 333.3 80 346.7 80 360 73.3 360 66.7 360 60 360 60 346.7 60 333.3 60 320 53.3 320 46.7 320 40 320 40 286.7 40 253.3 40 220ZM180 220C186.7 220 193.3 220 200 220 200 226.7 200 233.3 200 240 193.3 240 186.7 240 180 240 180 233.3 180 226.7 180 220ZM120 240C126.7 240 133.3 240 140 240 140 246.7 140 253.3 140 260 146.7 260 153.3 260 160 260 160 266.7 160 273.3 160 280 153.3 280 146.7 280 140 280 140 286.7 140 293.3 140 300 146.7 300 153.3 300 160 300 160 306.7 160 313.3 160 320 146.7 320 133.3 320 120 320 120 313.3 120 306.7 120 300 113.3 300 106.7 300 100 300 100 293.3 100 286.7 100 280 106.7 280 113.3 280 120 280 120 266.7 120 253.3 120 240ZM160 240C166.7 240 173.3 240 180 240 180 246.7 180 253.3 180 260 173.3 260 166.7 260 160 260 160 253.3 160 246.7 160 240ZM160 280C166.7 280 173.3 280 180 280 180 286.7 180 293.3 180 300 173.3 300 166.7 300 160 300 160 293.3 160 286.7 160 280ZM680 280C686.7 280 693.3 280 700 280 700 293.3 700 306.7 700 320 693.3 320 686.7 320 680 320 680 306.7 680 293.3 680 280ZM314.5 302.5C335.7 302.5 356.8 302.5 378 302.5 378 316.7 378 330.8 378 345 392.3 345.1 406.6 344.9 420.9 345.1 421.1 373.4 421.1 401.6 420.9 429.9 385.4 430.2 350 429.9 314.5 430 314.5 387.5 314.5 345 314.5 302.5M326.4 326C324.5 330.6 326.4 335.4 328.7 339.4 332.7 344.1 339.8 346 345.5 343.4 345.5 342.3 345.5 340.1 345.5 338.9 341.2 341.4 335.7 340.9 332.4 337.1 328.9 333.1 329.1 326.6 332.8 322.9 334.7 321.2 337.2 320.7 339.5 320 341.7 320.4 343.8 320.9 345.7 321.8 345.6 320.2 345.5 318.6 345.5 317 338 314 328.4 318 326.4 326M348.2 317.7C350.6 326.2 352.8 334.7 355.6 343.1 356 345.2 359.6 345.1 360 343 362.6 334.9 364.3 326.5 367 318.4 366.9 318 366.6 317 366.5 316.6 365.8 316.4 364.6 316 364 315.8 363.2 316.9 362.3 318 362.1 319.4 360.9 324.8 359.3 330.1 357.7 335.3 356 329.1 354.7 322.8 352.1 316.9 351.1 315.1 348.9 316.2 348.2 317.7M327.5 359C327.5 361.8 327.5 364.7 327.5 367.5 330.3 367.5 333.2 367.5 336 367.5 336 364.7 336 361.8 336 359 333.2 359 330.3 359 327.5 359M353 360C353 362 353 364 353 366 372 366 391 366 410 366 410 364 410 362 410 360 391 360 372 360 353 360M327.5 376.5C327.5 379.3 327.5 382.2 327.5 385 330.3 385 333.2 385 336 385 336 382.2 336 379.3 336 376.5 333.2 376.5 330.3 376.5 327.5 376.5M353.1 377.4C353 379.5 353 381.5 353 383.5 372 383.5 391 383.5 410 383.5 410 381.5 410 379.5 410 377.5 391 377.5 372.1 377.6 353.1 377.4M374.5 393.5C374.5 395.7 374.5 397.8 374.5 400 385.8 400 397.2 400 408.5 400 408.1 397.9 409.4 395.1 407.7 393.5 396.7 393.4 385.6 393.5 374.5 393.5M374.5 411.5C374.5 413.3 374.5 415.2 374.5 417 385.8 417 397.2 417 408.5 417 408.5 415.2 408.5 413.3 408.5 411.5 397.2 411.5 385.8 411.5 374.5 411.5ZM385 302.8C393 311.2 402 318.6 409.6 327.4 413.2 331.1 417.3 334.2 420.7 338 408.8 338 396.9 338 385 338 385 326.3 385 314.5 385 302.8ZM100 320C106.7 320 113.3 320 120 320 120 326.7 120 333.3 120 340 113.3 340 106.7 340 100 340 100 333.3 100 326.7 100 320ZM160 320C166.7 320 173.3 320 180 320 180 326.7 180 333.3 180 340 173.3 340 166.7 340 160 340 160 333.3 160 326.7 160 320ZM120 340C133.3 340 146.7 340 160 340 160 346.7 160 353.3 160 360 173.3 360 186.7 360 200 360 200 366.7 200 373.3 200 380 180 380 160 380 140 380 140 373.3 140 366.7 140 360 133.3 360 126.7 360 120 360 120 353.3 120 346.7 120 340ZM80 360C93.3 360 106.7 360 120 360 120 366.7 120 373.3 120 380 126.7 380 133.3 380 140 380 140 400 140 420 140 440 133.3 440 126.7 440 120 440 120 446.7 120 453.3 120 460 113.3 460 106.7 460 100 460 100 453.3 100 446.7 100 440 93.3 440 86.7 440 80 440 80 453.3 80 466.7 80 480 73.3 480 66.7 480 60 480 60 493.3 60 506.7 60 520 86.7 520 113.3 520 140 520 140 526.7 140 533.3 140 540 106.7 540 73.3 540 40 540 40 513.3 40 486.7 40 460 46.7 460 53.3 460 60 460 60 446.7 60 433.3 60 420 53.3 420 46.7 420 40 420 40 406.7 40 393.3 40 380 46.7 380 53.3 380 60 380 60 386.7 60 393.3 60 400 73.3 400 86.7 400 100 400 100 406.7 100 413.3 100 420 106.7 420 113.3 420 120 420 120 413.3 120 406.7 120 400 113.3 400 106.7 400 100 400 100 393.3 100 386.7 100 380 93.3 380 86.7 380 80 380 80 373.3 80 366.7 80 360ZM200 380C213.3 380 226.7 380 240 380 240 393.3 240 406.7 240 420 233.3 420 226.7 420 220 420 220 413.3 220 406.7 220 400 213.3 400 206.7 400 200 400 200 393.3 200 386.7 200 380ZM160 400C166.7 400 173.3 400 180 400 180 406.7 180 413.3 180 420 173.3 420 166.7 420 160 420 160 413.3 160 406.7 160 400ZM180 420C193.3 420 206.7 420 220 420 220 426.7 220 433.3 220 440 206.7 440 193.3 440 180 440 180 433.3 180 426.7 180 420ZM160 440C166.7 440 173.3 440 180 440 180 446.7 180 453.3 180 460 173.3 460 166.7 460 160 460 160 453.3 160 446.7 160 440ZM120 460C126.7 460 133.3 460 140 460 140 466.7 140 473.3 140 480 133.3 480 126.7 480 120 480 120 473.3 120 466.7 120 460ZM180 460C186.7 460 193.3 460 200 460 200 466.7 200 473.3 200 480 193.3 480 186.7 480 180 480 180 473.3 180 466.7 180 460ZM100 480C106.7 480 113.3 480 120 480 120 486.7 120 493.3 120 500 113.3 500 106.7 500 100 500 100 493.3 100 486.7 100 480ZM160 480C166.7 480 173.3 480 180 480 180 486.7 180 493.3 180 500 173.3 500 166.7 500 160 500 160 493.3 160 486.7 160 480ZM480 500C493.3 500 506.7 500 520 500 520 506.7 520 513.3 520 520 506.7 520 493.3 520 480 520 480 513.3 480 506.7 480 500ZM680 500C686.7 500 693.3 500 700 500 700 506.7 700 513.3 700 520 693.3 520 686.7 520 680 520 680 513.3 680 506.7 680 500ZM160 520C173.3 520 186.7 520 200 520 200 526.7 200 533.3 200 540 186.7 540 173.3 540 160 540 160 533.3 160 526.7 160 520ZM220 520C226.7 520 233.3 520 240 520 240 526.7 240 533.3 240 540 233.3 540 226.7 540 220 540 220 533.3 220 526.7 220 520ZM200 540C206.7 540 213.3 540 220 540 220 546.7 220 553.3 220 560 213.3 560 206.7 560 200 560 200 553.3 200 546.7 200 540ZM40 560C86.7 560 133.3 560 180 560 180 606.7 180 653.3 180 700 133.3 700 86.7 700 40 700 40 653.3 40 606.7 40 560M60 580C60 613.3 60 646.7 60 680 93.3 680 126.7 680 160 680 160 646.7 160 613.3 160 580 126.7 580 93.3 580 60 580ZM560 560C566.7 560 573.3 560 580 560 580 566.7 580 573.3 580 580 573.3 580 566.7 580 560 580 560 573.3 560 566.7 560 560ZM200 580C220 580 240 580 260 580 260 586.7 260 593.3 260 600 266.7 600 273.3 600 280 600 280 606.7 280 613.3 280 620 293.3 620 306.7 620 320 620 320 626.7 320 633.3 320 640 313.3 640 306.7 640 300 640 300 646.7 300 653.3 300 660 306.7 660 313.3 660 320 660 320 666.7 320 673.3 320 680 326.7 680 333.3 680 340 680 340 686.7 340 693.3 340 700 326.7 700 313.3 700 300 700 300 693.3 300 686.7 300 680 293.3 680 286.7 680 280 680 280 666.7 280 653.3 280 640 273.3 640 266.7 640 260 640 260 633.3 260 626.7 260 620 253.3 620 246.7 620 240 620 240 613.3 240 606.7 240 600 226.7 600 213.3 600 200 600 200 593.3 200 586.7 200 580ZM80 600C100 600 120 600 140 600 140 620 140 640 140 660 120 660 100 660 80 660 80 640 80 620 80 600ZM400 620C406.7 620 413.3 620 420 620 420 626.7 420 633.3 420 640 413.3 640 406.7 640 400 640 400 633.3 400 626.7 400 620ZM240 640C246.7 640 253.3 640 260 640 260 646.7 260 653.3 260 660 253.3 660 246.7 660 240 660 240 653.3 240 646.7 240 640ZM380 640C386.7 640 393.3 640 400 640 400 653.3 400 666.7 400 680 393.3 680 386.7 680 380 680 380 686.7 380 693.3 380 700 373.3 700 366.7 700 360 700 360 693.3 360 686.7 360 680 353.3 680 346.7 680 340 680 340 673.3 340 666.7 340 660 353.3 660 366.7 660 380 660 380 653.3 380 646.7 380 640ZM220 660C226.7 660 233.3 660 240 660 240 673.3 240 686.7 240 700 233.3 700 226.7 700 220 700 220 686.7 220 673.3 220 660ZM420 660C440 660 460 660 480 660 480 666.7 480 673.3 480 680 473.3 680 466.7 680 460 680 460 686.7 460 693.3 460 700 453.3 700 446.7 700 440 700 440 693.3 440 686.7 440 680 433.3 680 426.7 680 420 680 420 673.3 420 666.7 420 660ZM500 660C506.7 660 513.3 660 520 660 520 666.7 520 673.3 520 680 526.7 680 533.3 680 540 680 540 673.3 540 666.7 540 660 546.7 660 553.3 660 560 660 560 673.3 560 686.7 560 700 533.3 700 506.7 700 480 700 480 693.3 480 686.7 480 680 486.7 680 493.3 680 500 680 500 673.3 500 666.7 500 660ZM260 680C266.7 680 273.3 680 280 680 280 686.7 280 693.3 280 700 273.3 700 266.7 700 260 700 260 693.3 260 686.7 260 680ZM660 680C666.7 680 673.3 680 680 680 680 686.7 680 693.3 680 700 673.3 700 666.7 700 660 700 660 693.3 660 686.7 660 680Z"/></svg>