<svg xmlns="http://www.w3.org/2000/svg" width="740" height="740" viewBox="0 0 740 740" version="1.1"><path fill="#004444" opacity="1" d="M40 40C86.7 40 133.3 40 180 40 180 86.7 180 133.3 180 180 133.3 180 86.7 180 40 180 40 133.3 40 86.7 40 40M60 60C60 93.3 60 126.7 60 160 93.3 160 126.7 160 160 160 160 126.7 160 93.3 160 60 126.7 60 93.3 60 60 60ZM200 40C226.7 40 253.3 40 280 40 280 46.7 280 53.3 280 60 286.7 60 293.3 60 300 60 300 53.3 300 46.7 300 40 306.7 40 313.3 40 320 40 320 53.3 320 66.7 320 80 313.3 80 306.7 80 300 80 300 86.7 300 93.3 300 100 320 100 340 100 360 100 360 106.7 360 113.3 360 120 346.7 120 333.3 120 320 120 320 126.7 320 133.3 320 140 313.3 140 306.7 140 300 140 300 133.3 300 126.7 300 120 293.3 120 286.7 120 280 120 280 113.3 280 106.7 280 100 273.3 100 266.7 100 260 100 260 106.7 260 113.3 260 120 246.7 120 233.3 120 220 120 220 113.3 220 106.7 220 100 213.3 100 206.7 100 200 100 200 80 200 60 200 40M240 60C240 66.7 240 73.3 240 80 246.7 80 253.3 80 260 80 260 73.3 260 66.7 260 60 253.3 60 246.7 60 240 60ZM360 40C373.3 40 386.7 40 400 40 400 46.7 400 53.3 400 60 393.3 60 386.7 60 380 60 380 66.7 380 73.3 380 80 386.7 80 393.3 80 400 80 400 86.7 400 93.3 400 100 386.7 100 373.3 100 360 100 360 80 360 60 360 40ZM420 40C426.7 40 433.3 40 440 40 440 53.3 440 66.7 440 80 433.3 80 426.7 80 420 80 420 66.7 420 53.3 420 40ZM460 40C486.7 40 513.3 40 540 40 540 46.7 540 53.3 540 60 526.7 60 513.3 60 500 60 500 66.7 500 73.3 500 80 506.7 80 513.3 80 520 80 520 86.7 520 93.3 520 100 526.7 100 533.3 100 540 100 540 106.7 540 113.3 540 120 520 120 500 120 480 120 480 113.3 480 106.7 480 100 466.7 100 453.3 100 440 100 440 93.3 440 86.7 440 80 446.7 80 453.3 80 460 80 460 66.7 460 53.3 460 40ZM560 40C606.7 40 653.3 40 700 40 700 86.7 700 133.3 700 180 653.3 180 606.7 180 560 180 560 133.3 560 86.7 560 40M580 60C580 93.3 580 126.7 580 160 613.3 160 646.7 160 680 160 680 126.7 680 93.3 680 60 646.7 60 613.3 60 580 60ZM80 80C100 80 120 80 140 80 140 100 140 120 140 140 120 140 100 140 80 140 80 120 80 100 80 80ZM600 80C620 80 640 80 660 80 660 100 660 120 660 140 640 140 620 140 600 140 600 120 600 100 600 80ZM400 100C413.3 100 426.7 100 440 100 440 106.7 440 113.3 440 120 426.7 120 413.3 120 400 120 400 113.3 400 106.7 400 100ZM360 120C366.7 120 373.3 120 380 120 380 126.7 380 133.3 380 140 373.3 140 366.7 140 360 140 360 133.3 360 126.7 360 120ZM200 140C206.7 140 213.3 140 220 140 220 153.3 220 166.7 220 180 226.7 180 233.3 180 240 180 240 173.3 240 166.7 240 160 246.7 160 253.3 160 260 160 260 173.3 260 186.7 260 200 246.7 200 233.3 200 220 200 220 213.3 220 226.7 220 240 213.3 240 206.7 240 200 240 200 246.7 200 253.3 200 260 186.7 260 173.3 260 160 260 160 253.3 160 246.7 160 240 166.7 240 173.3 240 180 240 180 233.3 180 226.7 180 220 186.7 220 193.3 220 200 220 200 193.3 200 166.7 200 140ZM260 140C266.7 140 273.3 140 280 140 280 146.7 280 153.3 280 160 273.3 160 266.7 160 260 160 260 153.3 260 146.7 260 140ZM320 140C333.3 140 346.7 140 360 140 360 146.7 360 153.3 360 160 353.3 160 346.7 160 340 160 340 166.7 340 173.3 340 180 346.7 180 353.3 180 360 180 360 186.7 360 193.3 360 200 353.3 200 346.7 200 340 200 340 206.7 340 213.3 340 220 346.7 220 353.3 220 360 220 360 233.3 360 246.7 360 260 373.3 260 386.7 260 400 260 400 253.3 400 246.7 400 240 393.3 240 386.7 240 380 240 380 233.3 380 226.7 380 220 400 220 420 220 440 220 440 233.3 440 246.7 440 260 446.7 260 453.3 260 460 260 460 246.7 460 233.3 460 220 466.7 220 473.3 220 480 220 480 233.3 480 246.7 480 260 493.3 260 506.7 260 520 260 520 280 520 300 520 320 506.7 320 493.3 320 480 320 480 333.3 480 346.7 480 360 486.7 360 493.3 360 500 360 500 366.7 500 373.3 500 380 493.3 380 486.7 380 480 380 480 393.3 480 406.7 480 420 486.7 420 493.3 420 500 420 500 433.3 500 446.7 500 460 493.3 460 486.7 460 480 460 480 466.7 480 473.3 480 480 473.3 480 466.7 480 460 480 460 486.7 460 493.3 460 500 466.7 500 473.3 500 480 500 480 513.3 480 526.7 480 540 473.3 540 466.7 540 460 540 460 553.3 460 566.7 460 580 453.3 580 446.7 580 440 580 440 586.7 440 593.3 440 600 433.3 600 426.7 600 420 600 420 593.3 420 586.7 420 580 413.3 580 406.7 580 400 580 400 566.7 400 553.3 400 540 393.3 540 386.7 540 380 540 380 533.3 380 526.7 380 520 386.7 520 393.3 520 400 520 400 513.3 400 506.7 400 500 413.3 500 426.7 500 440 500 440 493.3 440 486.7 440 480 426.7 480 413.3 480 400 480 400 486.7 400 493.3 400 500 386.7 500 373.3 500 360 500 360 493.3 360 486.7 360 480 340 480 320 480 300 480 300 486.7 300 493.3 300 500 293.3 500 286.7 500 280 500 280 493.3 280 486.7 280 480 273.3 480 266.7 480 260 480 260 500 260 520 260 540 253.3 540 246.7 540 240 540 240 513.3 240 486.7 240 460 233.3 460 226.7 460 220 460 220 466.7 220 473.3 220 480 206.7 480 193.3 480 180 480 180 473.3 180 466.7 180 460 173.3 460 166.7 460 160 460 160 453.3 160 446.7 160 440 166.7 440 173.3 440 180 440 180 433.3 180 426.7 180 420 186.7 420 193.3 420 200 420 200 426.7 200 433.3 200 440 220 440 240 440 260 440 260 420 260 400 260 380 253.3 380 246.7 380 240 380 240 373.3 240 366.7 240 360 246.7 360 253.3 360 260 360 260 353.3 260 346.7 260 340 253.3 340 246.7 340 240 340 240 333.3 240 326.7 240 320 233.3 320 226.7 320 220 320 220 306.7 220 293.3 220 280 233.3 280 246.7 280 260 280 260 273.3 260 266.7 260 260 253.3 260 246.7 260 240 260 240 253.3 240 246.7 240 240 246.7 240 253.3 240 260 240 260 226.7 260 213.3 260 200 280 200 300 200 320 200 320 180 320 160 320 140M280 220C280 226.7 280 233.3 280 240 286.7 240 293.3 240 300 240 300 246.7 300 253.3 300 260 306.7 260 313.3 260 320 260 320 246.7 320 233.3 320 220 306.7 220 293.3 220 280 220M480 280C480 286.7 480 293.3 480 300 486.7 300 493.3 300 500 300 500 293.3 500 286.7 500 280 493.3 280 486.7 280 480 280M306.9 331C327.7 345.6 349 359.6 370 374.1 389.7 360.8 409.3 347.3 429 334 430.2 333.2 431.6 332.5 432.2 331 390.5 331 348.7 331 306.9 331M303.5 339.4C303.5 362.3 303.5 385.2 303.5 408.1 303.2 411.1 305.7 414.1 308.8 414 348.9 414.1 389 414 429.1 414 432.6 414.2 435.8 411.6 435.5 407.9 435.5 385.4 435.6 362.8 435.5 340.3 421 349.4 407.2 359.5 393 368.9 385.5 374.1 377.8 379.1 370.3 384.4 347.8 369.8 326 354.1 303.5 339.4M420 520C420 533.3 420 546.7 420 560 426.7 560 433.3 560 440 560 440 546.7 440 533.3 440 520 433.3 520 426.7 520 420 520ZM460 140C466.7 140 473.3 140 480 140 480 146.7 480 153.3 480 160 473.3 160 466.7 160 460 160 460 153.3 460 146.7 460 140ZM500 140C513.3 140 526.7 140 540 140 540 153.3 540 166.7 540 180 533.3 180 526.7 180 520 180 520 173.3 520 166.7 520 160 513.3 160 506.7 160 500 160 500 153.3 500 146.7 500 140ZM280 160C286.7 160 293.3 160 300 160 300 166.7 300 173.3 300 180 293.3 180 286.7 180 280 180 280 173.3 280 166.7 280 160ZM360 160C366.7 160 373.3 160 380 160 380 166.7 380 173.3 380 180 373.3 180 366.7 180 360 180 360 173.3 360 166.7 360 160ZM400 160C406.7 160 413.3 160 420 160 420 166.7 420 173.3 420 180 426.7 180 433.3 180 440 180 440 173.3 440 166.7 440 160 446.7 160 453.3 160 460 160 460 166.7 460 173.3 460 180 466.7 180 473.3 180 480 180 480 173.3 480 166.7 480 160 486.7 160 493.3 160 500 160 500 166.7 500 173.3 500 180 506.7 180 513.3 180 520 180 520 186.7 520 193.3 520 200 546.7 200 573.3 200 600 200 600 206.7 600 213.3 600 220 593.3 220 586.7 220 580 220 580 233.3 580 246.7 580 260 600 260 620 260 640 260 640 253.3 640 246.7 640 240 653.3 240 666.7 240 680 240 680 260 680 280 680 300 673.3 300 666.7 300 660 300 660 293.3 660 286.7 660 280 626.7 280 593.3 280 560 280 560 286.7 560 293.3 560 300 553.3 300 546.7 300 540 300 540 286.7 540 273.3 540 260 533.3 260 526.7 260 520 260 520 253.3 520 246.7 520 240 533.3 240 546.7 240 560 240 560 233.3 560 226.7 560 220 546.7 220 533.3 220 520 220 520 226.7 520 233.3 520 240 513.3 240 506.7 240 500 240 500 233.3 500 226.7 500 220 493.3 220 486.7 220 480 220 480 213.3 480 206.7 480 200 473.3 200 466.7 200 460 200 460 206.7 460 213.3 460 220 453.3 220 446.7 220 440 220 440 213.3 440 206.7 440 200 426.7 200 413.3 200 400 200 400 186.7 400 173.3 400 160ZM80 200C100 200 120 200 140 200 140 206.7 140 213.3 140 220 126.7 220 113.3 220 100 220 100 226.7 100 233.3 100 240 106.7 240 113.3 240 120 240 120 246.7 120 253.3 120 260 106.7 260 93.3 260 80 260 80 253.3 80 246.7 80 240 73.3 240 66.7 240 60 240 60 253.3 60 266.7 60 280 73.3 280 86.7 280 100 280 100 300 100 320 100 340 93.3 340 86.7 340 80 340 80 346.7 80 353.3 80 360 100 360 120 360 140 360 140 366.7 140 373.3 140 380 146.7 380 153.3 380 160 380 160 386.7 160 393.3 160 400 153.3 400 146.7 400 140 400 140 413.3 140 426.7 140 440 133.3 440 126.7 440 120 440 120 453.3 120 466.7 120 480 113.3 480 106.7 480 100 480 100 460 100 440 100 420 106.7 420 113.3 420 120 420 120 413.3 120 406.7 120 400 113.3 400 106.7 400 100 400 100 393.3 100 386.7 100 380 93.3 380 86.7 380 80 380 80 406.7 80 433.3 80 460 73.3 460 66.7 460 60 460 60 440 60 420 60 400 53.3 400 46.7 400 40 400 40 373.3 40 346.7 40 320 46.7 320 53.3 320 60 320 60 313.3 60 306.7 60 300 53.3 300 46.7 300 40 300 40 273.3 40 246.7 40 220 53.3 220 66.7 220 80 220 80 213.3 80 206.7 80 200ZM160 200C166.7 200 173.3 200 180 200 180 206.7 180 213.3 180 220 173.3 220 166.7 220 160 220 160 213.3 160 206.7 160 200ZM640 200C660 200 680 200 700 200 700 213.3 700 226.7 700 240 693.3 240 686.7 240 680 240 680 233.3 680 226.7 680 220 666.7 220 653.3 220 640 220 640 213.3 640 206.7 640 200ZM620 220C626.7 220 633.3 220 640 220 640 226.7 640 233.3 640 240 633.3 240 626.7 240 620 240 620 233.3 620 226.7 620 220ZM120 260C133.3 260 146.7 260 160 260 160 266.7 160 273.3 160 280 166.7 280 173.3 280 180 280 180 286.7 180 293.3 180 300 173.3 300 166.7 300 160 300 160 306.7 160 313.3 160 320 166.7 320 173.3 320 180 320 180 326.7 180 333.3 180 340 173.3 340 166.7 340 160 340 160 346.7 160 353.3 160 360 153.3 360 146.7 360 140 360 140 333.3 140 306.7 140 280 133.3 280 126.7 280 120 280 120 273.3 120 266.7 120 260ZM200 260C206.7 260 213.3 260 220 260 220 266.7 220 273.3 220 280 213.3 280 206.7 280 200 280 200 273.3 200 266.7 200 260ZM180 300C186.7 300 193.3 300 200 300 200 306.7 200 313.3 200 320 193.3 320 186.7 320 180 320 180 313.3 180 306.7 180 300ZM580 300C586.7 300 593.3 300 600 300 600 306.7 600 313.3 600 320 593.3 320 586.7 320 580 320 580 313.3 580 306.7 580 300ZM640 300C646.7 300 653.3 300 660 300 660 306.7 660 313.3 660 320 666.7 320 673.3 320 680 320 680 333.3 680 346.7 680 360 673.3 360 666.7 360 660 360 660 366.7 660 373.3 660 380 653.3 380 646.7 380 640 380 640 386.7 640 393.3 640 400 660 400 680 400 700 400 700 426.7 700 453.3 700 480 693.3 480 686.7 480 680 480 680 473.3 680 466.7 680 460 673.3 460 666.7 460 660 460 660 453.3 660 446.7 660 440 666.7 440 673.3 440 680 440 680 433.3 680 426.7 680 420 673.3 420 666.7 420 660 420 660 426.7 660 433.3 660 440 646.7 440 633.3 440 620 440 620 433.3 620 426.7 620 420 613.3 420 606.7 420 600 420 600 426.7 600 433.3 600 440 606.7 440 613.3 440 620 440 620 446.7 620 453.3 620 460 593.3 460 566.7 460 540 460 540 453.3 540 446.7 540 440 546.7 440 553.3 440 560 440 560 433.3 560 426.7 560 420 546.7 420 533.3 420 520 420 520 413.3 520 406.7 520 400 533.3 400 546.7 400 560 400 560 393.3 560 386.7 560 380 566.7 380 573.3 380 580 380 580 386.7 580 393.3 580 400 593.3 400 606.7 400 620 400 620 393.3 620 386.7 620 380 606.7 380 593.3 380 580 380 580 366.7 580 353.3 580 340 586.7 340 593.3 340 600 340 600 346.7 600 353.3 600 360 613.3 360 626.7 360 640 360 640 353.3 640 346.7 640 340 633.3 340 626.7 340 620 340 620 333.3 620 326.7 620 320 626.7 320 633.3 320 640 320 640 313.3 640 306.7 640 300ZM680 300C686.7 300 693.3 300 700 300 700 306.7 700 313.3 700 320 693.3 320 686.7 320 680 320 680 313.3 680 306.7 680 300ZM200 320C206.7 320 213.3 320 220 320 220 326.7 220 333.3 220 340 213.3 340 206.7 340 200 340 200 333.3 200 326.7 200 320ZM540 320C553.3 320 566.7 320 580 320 580 326.7 580 333.3 580 340 573.3 340 566.7 340 560 340 560 353.3 560 366.7 560 380 546.7 380 533.3 380 520 380 520 373.3 520 366.7 520 360 526.7 360 533.3 360 540 360 540 346.7 540 333.3 540 320ZM180 340C186.7 340 193.3 340 200 340 200 353.3 200 366.7 200 380 206.7 380 213.3 380 220 380 220 386.7 220 393.3 220 400 206.7 400 193.3 400 180 400 180 393.3 180 386.7 180 380 173.3 380 166.7 380 160 380 160 373.3 160 366.7 160 360 166.7 360 173.3 360 180 360 180 353.3 180 346.7 180 340ZM500 340C506.7 340 513.3 340 520 340 520 346.7 520 353.3 520 360 513.3 360 506.7 360 500 360 500 353.3 500 346.7 500 340ZM680 360C686.7 360 693.3 360 700 360 700 366.7 700 373.3 700 380 693.3 380 686.7 380 680 380 680 373.3 680 366.7 680 360ZM500 380C506.7 380 513.3 380 520 380 520 386.7 520 393.3 520 400 513.3 400 506.7 400 500 400 500 393.3 500 386.7 500 380ZM160 400C166.7 400 173.3 400 180 400 180 406.7 180 413.3 180 420 173.3 420 166.7 420 160 420 160 413.3 160 406.7 160 400ZM220 400C226.7 400 233.3 400 240 400 240 406.7 240 413.3 240 420 233.3 420 226.7 420 220 420 220 413.3 220 406.7 220 400ZM40 460C46.7 460 53.3 460 60 460 60 486.7 60 513.3 60 540 53.3 540 46.7 540 40 540 40 513.3 40 486.7 40 460ZM140 460C146.7 460 153.3 460 160 460 160 466.7 160 473.3 160 480 166.7 480 173.3 480 180 480 180 486.7 180 493.3 180 500 173.3 500 166.7 500 160 500 160 506.7 160 513.3 160 520 180 520 200 520 220 520 220 526.7 220 533.3 220 540 226.7 540 233.3 540 240 540 240 546.7 240 553.3 240 560 226.7 560 213.3 560 200 560 200 553.3 200 546.7 200 540 160 540 120 540 80 540 80 533.3 80 526.7 80 520 86.7 520 93.3 520 100 520 100 513.3 100 506.7 100 500 106.7 500 113.3 500 120 500 120 506.7 120 513.3 120 520 126.7 520 133.3 520 140 520 140 500 140 480 140 460ZM520 460C526.7 460 533.3 460 540 460 540 466.7 540 473.3 540 480 533.3 480 526.7 480 520 480 520 473.3 520 466.7 520 460ZM620 460C626.7 460 633.3 460 640 460 640 466.7 640 473.3 640 480 633.3 480 626.7 480 620 480 620 473.3 620 466.7 620 460ZM80 480C86.7 480 93.3 480 100 480 100 486.7 100 493.3 100 500 93.3 500 86.7 500 80 500 80 493.3 80 486.7 80 480ZM480 480C486.7 480 493.3 480 500 480 500 486.7 500 493.3 500 500 493.3 500 486.7 500 480 500 480 493.3 480 486.7 480 480ZM540 480C560 480 580 480 600 480 600 486.7 600 493.3 600 500 580 500 560 500 540 500 540 493.3 540 486.7 540 480ZM640 480C653.3 480 666.7 480 680 480 680 486.7 680 493.3 680 500 673.3 500 666.7 500 660 500 660 506.7 660 513.3 660 520 646.7 520 633.3 520 620 520 620 526.7 620 533.3 620 540 633.3 540 646.7 540 660 540 660 546.7 660 553.3 660 560 666.7 560 673.3 560 680 560 680 566.7 680 573.3 680 580 673.3 580 666.7 580 660 580 660 586.7 660 593.3 660 600 653.3 600 646.7 600 640 600 640 613.3 640 626.7 640 640 620 640 600 640 580 640 580 633.3 580 626.7 580 620 573.3 620 566.7 620 560 620 560 626.7 560 633.3 560 640 566.7 640 573.3 640 580 640 580 646.7 580 653.3 580 660 566.7 660 553.3 660 540 660 540 646.7 540 633.3 540 620 533.3 620 526.7 620 520 620 520 606.7 520 593.3 520 580 506.7 580 493.3 580 480 580 480 573.3 480 566.7 480 560 493.3 560 506.7 560 520 560 520 540 520 520 520 500 526.7 500 533.3 500 540 500 540 506.7 540 513.3 540 520 560 520 580 520 600 520 600 513.3 600 506.7 600 500 613.3 500 626.7 500 640 500 640 493.3 640 486.7 640 480M540 540C540 560 540 580 540 600 560 600 580 600 600 600 600 580 600 560 600 540 580 540 560 540 540 540ZM300 500C306.7 500 313.3 500 320 500 320 506.7 320 513.3 320 520 333.3 520 346.7 520 360 520 360 526.7 360 533.3 360 540 366.7 540 373.3 540 380 540 380 553.3 380 566.7 380 580 373.3 580 366.7 580 360 580 360 573.3 360 566.7 360 560 353.3 560 346.7 560 340 560 340 566.7 340 573.3 340 580 333.3 580 326.7 580 320 580 320 586.7 320 593.3 320 600 326.7 600 333.3 600 340 600 340 606.7 340 613.3 340 620 326.7 620 313.3 620 300 620 300 633.3 300 646.7 300 660 293.3 660 286.7 660 280 660 280 673.3 280 686.7 280 700 266.7 700 253.3 700 240 700 240 686.7 240 673.3 240 660 226.7 660 213.3 660 200 660 200 640 200 620 200 600 206.7 600 213.3 600 220 600 220 593.3 220 586.7 220 580 240 580 260 580 280 580 280 586.7 280 593.3 280 600 286.7 600 293.3 600 300 600 300 593.3 300 586.7 300 580 293.3 580 286.7 580 280 580 280 573.3 280 566.7 280 560 273.3 560 266.7 560 260 560 260 553.3 260 546.7 260 540 273.3 540 286.7 540 300 540 300 546.7 300 553.3 300 560 306.7 560 313.3 560 320 560 320 553.3 320 546.7 320 540 313.3 540 306.7 540 300 540 300 526.7 300 513.3 300 500M220 620C220 626.7 220 633.3 220 640 233.3 640 246.7 640 260 640 260 633.3 260 626.7 260 620 246.7 620 233.3 620 220 620ZM660 520C673.3 520 686.7 520 700 520 700 533.3 700 546.7 700 560 693.3 560 686.7 560 680 560 680 553.3 680 546.7 680 540 673.3 540 666.7 540 660 540 660 533.3 660 526.7 660 520ZM40 560C86.7 560 133.3 560 180 560 180 606.7 180 653.3 180 700 133.3 700 86.7 700 40 700 40 653.3 40 606.7 40 560M60 580C60 613.3 60 646.7 60 680 93.3 680 126.7 680 160 680 160 646.7 160 613.3 160 580 126.7 580 93.3 580 60 580ZM560 560C566.7 560 573.3 560 580 560 580 566.7 580 573.3 580 580 573.3 580 566.7 580 560 580 560 573.3 560 566.7 560 560ZM340 580C346.7 580 353.3 580 360 580 360 586.7 360 593.3 360 600 353.3 600 346.7 600 340 600 340 593.3 340 586.7 340 580ZM80 600C100 600 120 600 140 600 140 620 140 640 140 660 120 660 100 660 80 660 80 640 80 620 80 600ZM360 600C366.7 600 373.3 600 380 600 380 606.7 380 613.3 380 620 373.3 620 366.7 620 360 620 360 613.3 360 606.7 360 600ZM460 600C473.3 600 486.7 600 500 600 500 606.7 500 613.3 500 620 493.3 620 486.7 620 480 620 480 633.3 480 646.7 480 660 466.7 660 453.3 660 440 660 440 653.3 440 646.7 440 640 446.7 640 453.3 640 460 640 460 626.7 460 613.3 460 600ZM680 600C686.7 600 693.3 600 700 600 700 606.7 700 613.3 700 620 693.3 620 686.7 620 680 620 680 613.3 680 606.7 680 600ZM420 620C426.7 620 433.3 620 440 620 440 626.7 440 633.3 440 640 433.3 640 426.7 640 420 640 420 633.3 420 626.7 420 620ZM500 620C506.7 620 513.3 620 520 620 520 633.3 520 646.7 520 660 513.3 660 506.7 660 500 660 500 646.7 500 633.3 500 620ZM660 620C666.7 620 673.3 620 680 620 680 626.7 680 633.3 680 640 673.3 640 666.7 640 660 640 660 633.3 660 626.7 660 620ZM320 640C326.7 640 333.3 640 340 640 340 646.7 340 653.3 340 660 333.3 660 326.7 660 320 660 320 653.3 320 646.7 320 640ZM360 640C380 640 400 640 420 640 420 646.7 420 653.3 420 660 426.7 660 433.3 660 440 660 440 666.7 440 673.3 440 680 433.3 680 426.7 680 420 680 420 686.7 420 693.3 420 700 400 700 380 700 360 700 360 680 360 660 360 640M380 660C380 666.7 380 673.3 380 680 386.7 680 393.3 680 400 680 400 673.3 400 666.7 400 660 393.3 660 386.7 660 380 660ZM300 660C306.7 660 313.3 660 320 660 320 666.7 320 673.3 320 680 313.3 680 306.7 680 300 680 300 673.3 300 666.7 300 660ZM620 660C626.7 660 633.3 660 640 660 640 666.7 640 673.3 640 680 633.3 680 626.7 680 620 680 620 673.3 620 666.7 620 660ZM480 680C500 680 520 680 540 680 540 686.7 540 693.3 540 700 520 700 500 700 480 700 480 693.3 480 686.7 480 680ZM580 680C586.7 680 593.3 680 600 680 600 686.7 600 693.3 600 700 593.3 700 586.7 700 580 700 580 693.3 580 686.7 580 680ZM640 680C653.3 680 666.7 680 680 680 680 686.7 680 693.3 680 700 666.7 700 653.3 700 640 700 640 693.3 640 686.7 640 680Z"/></svg>