<svg xmlns="http://www.w3.org/2000/svg" width="740" height="740" viewBox="0 0 740 740" version="1.1"><path fill="#333333" opacity="1" d="M40 40C86.7 40 133.3 40 180 40 180 86.7 180 133.3 180 180 133.3 180 86.7 180 40 180 40 133.3 40 86.7 40 40M60 60C60 93.3 60 126.7 60 160 93.3 160 126.7 160 160 160 160 126.7 160 93.3 160 60 126.7 60 93.3 60 60 60ZM220 40C260 40 300 40 340 40 340 46.7 340 53.3 340 60 346.7 60 353.3 60 360 60 360 66.7 360 73.3 360 80 346.7 80 333.3 80 320 80 320 73.3 320 66.7 320 60 313.3 60 306.7 60 300 60 300 66.7 300 73.3 300 80 293.3 80 286.7 80 280 80 280 73.3 280 66.7 280 60 273.3 60 266.7 60 260 60 260 66.7 260 73.3 260 80 253.3 80 246.7 80 240 80 240 73.3 240 66.7 240 60 233.3 60 226.7 60 220 60 220 53.3 220 46.7 220 40ZM380 40C393.3 40 406.7 40 420 40 420 46.7 420 53.3 420 60 426.7 60 433.3 60 440 60 440 66.7 440 73.3 440 80 446.7 80 453.3 80 460 80 460 66.7 460 53.3 460 40 473.3 40 486.7 40 500 40 500 46.7 500 53.3 500 60 493.3 60 486.7 60 480 60 480 86.7 480 113.3 480 140 473.3 140 466.7 140 460 140 460 153.3 460 166.7 460 180 453.3 180 446.7 180 440 180 440 173.3 440 166.7 440 160 433.3 160 426.7 160 420 160 420 146.7 420 133.3 420 120 413.3 120 406.7 120 400 120 400 113.3 400 106.7 400 100 393.3 100 386.7 100 380 100 380 106.7 380 113.3 380 120 373.3 120 366.7 120 360 120 360 106.7 360 93.3 360 80 373.3 80 386.7 80 400 80 400 73.3 400 66.7 400 60 393.3 60 386.7 60 380 60 380 53.3 380 46.7 380 40ZM520 40C526.7 40 533.3 40 540 40 540 46.7 540 53.3 540 60 533.3 60 526.7 60 520 60 520 53.3 520 46.7 520 40ZM560 40C606.7 40 653.3 40 700 40 700 86.7 700 133.3 700 180 653.3 180 606.7 180 560 180 560 133.3 560 86.7 560 40M580 60C580 93.3 580 126.7 580 160 613.3 160 646.7 160 680 160 680 126.7 680 93.3 680 60 646.7 60 613.3 60 580 60ZM80 80C100 80 120 80 140 80 140 100 140 120 140 140 120 140 100 140 80 140 80 120 80 100 80 80ZM200 80C206.7 80 213.3 80 220 80 220 93.3 220 106.7 220 120 213.3 120 206.7 120 200 120 200 106.7 200 93.3 200 80ZM260 80C266.7 80 273.3 80 280 80 280 86.7 280 93.3 280 100 273.3 100 266.7 100 260 100 260 93.3 260 86.7 260 80ZM300 80C306.7 80 313.3 80 320 80 320 86.7 320 93.3 320 100 313.3 100 306.7 100 300 100 300 93.3 300 86.7 300 80ZM500 80C506.7 80 513.3 80 520 80 520 86.7 520 93.3 520 100 526.7 100 533.3 100 540 100 540 113.3 540 126.7 540 140 533.3 140 526.7 140 520 140 520 146.7 520 153.3 520 160 513.3 160 506.7 160 500 160 500 133.3 500 106.7 500 80ZM600 80C620 80 640 80 660 80 660 100 660 120 660 140 640 140 620 140 600 140 600 120 600 100 600 80ZM280 100C286.7 100 293.3 100 300 100 300 106.7 300 113.3 300 120 313.3 120 326.7 120 340 120 340 126.7 340 133.3 340 140 320 140 300 140 280 140 280 146.7 280 153.3 280 160 273.3 160 266.7 160 260 160 260 146.7 260 133.3 260 120 266.7 120 273.3 120 280 120 280 113.3 280 106.7 280 100ZM380 120C386.7 120 393.3 120 400 120 400 133.3 400 146.7 400 160 393.3 160 386.7 160 380 160 380 166.7 380 173.3 380 180 386.7 180 393.3 180 400 180 400 173.3 400 166.7 400 160 406.7 160 413.3 160 420 160 420 166.7 420 173.3 420 180 426.7 180 433.3 180 440 180 440 200 440 220 440 240 446.7 240 453.3 240 460 240 460 246.7 460 253.3 460 260 466.7 260 473.3 260 480 260 480 253.3 480 246.7 480 240 486.7 240 493.3 240 500 240 500 226.7 500 213.3 500 200 493.3 200 486.7 200 480 200 480 186.7 480 173.3 480 160 486.7 160 493.3 160 500 160 500 166.7 500 173.3 500 180 506.7 180 513.3 180 520 180 520 186.7 520 193.3 520 200 526.7 200 533.3 200 540 200 540 206.7 540 213.3 540 220 533.3 220 526.7 220 520 220 520 226.7 520 233.3 520 240 526.7 240 533.3 240 540 240 540 233.3 540 226.7 540 220 546.7 220 553.3 220 560 220 560 226.7 560 233.3 560 240 566.7 240 573.3 240 580 240 580 233.3 580 226.7 580 220 593.3 220 606.7 220 620 220 620 213.3 620 206.7 620 200 633.3 200 646.7 200 660 200 660 206.7 660 213.3 660 220 653.3 220 646.7 220 640 220 640 226.7 640 233.3 640 240 626.7 240 613.3 240 600 240 600 246.7 600 253.3 600 260 606.7 260 613.3 260 620 260 620 266.7 620 273.3 620 280 613.3 280 606.7 280 600 280 600 293.3 600 306.7 600 320 593.3 320 586.7 320 580 320 580 313.3 580 306.7 580 300 573.3 300 566.7 300 560 300 560 293.3 560 286.7 560 280 566.7 280 573.3 280 580 280 580 273.3 580 266.7 580 260 573.3 260 566.7 260 560 260 560 266.7 560 273.3 560 280 553.3 280 546.7 280 540 280 540 273.3 540 266.7 540 260 533.3 260 526.7 260 520 260 520 266.7 520 273.3 520 280 506.7 280 493.3 280 480 280 480 306.7 480 333.3 480 360 486.7 360 493.3 360 500 360 500 373.3 500 386.7 500 400 493.3 400 486.7 400 480 400 480 406.7 480 413.3 480 420 486.7 420 493.3 420 500 420 500 413.3 500 406.7 500 400 506.7 400 513.3 400 520 400 520 386.7 520 373.3 520 360 526.7 360 533.3 360 540 360 540 353.3 540 346.7 540 340 533.3 340 526.7 340 520 340 520 333.3 520 326.7 520 320 526.7 320 533.3 320 540 320 540 313.3 540 306.7 540 300 546.7 300 553.3 300 560 300 560 306.7 560 313.3 560 320 566.7 320 573.3 320 580 320 580 333.3 580 346.7 580 360 586.7 360 593.3 360 600 360 600 346.7 600 333.3 600 320 606.7 320 613.3 320 620 320 620 306.7 620 293.3 620 280 626.7 280 633.3 280 640 280 640 300 640 320 640 340 646.7 340 653.3 340 660 340 660 346.7 660 353.3 660 360 653.3 360 646.7 360 640 360 640 373.3 640 386.7 640 400 646.7 400 653.3 400 660 400 660 413.3 660 426.7 660 440 653.3 440 646.7 440 640 440 640 446.7 640 453.3 640 460 646.7 460 653.3 460 660 460 660 473.3 660 486.7 660 500 666.7 500 673.3 500 680 500 680 506.7 680 513.3 680 520 666.7 520 653.3 520 640 520 640 513.3 640 506.7 640 500 633.3 500 626.7 500 620 500 620 493.3 620 486.7 620 480 613.3 480 606.7 480 600 480 600 486.7 600 493.3 600 500 586.7 500 573.3 500 560 500 560 493.3 560 486.7 560 480 566.7 480 573.3 480 580 480 580 473.3 580 466.7 580 460 593.3 460 606.7 460 620 460 620 446.7 620 433.3 620 420 613.3 420 606.7 420 600 420 600 413.3 600 406.7 600 400 586.7 400 573.3 400 560 400 560 393.3 560 386.7 560 380 553.3 380 546.7 380 540 380 540 393.3 540 406.7 540 420 560 420 580 420 600 420 600 426.7 600 433.3 600 440 580 440 560 440 540 440 540 446.7 540 453.3 540 460 533.3 460 526.7 460 520 460 520 466.7 520 473.3 520 480 526.7 480 533.3 480 540 480 540 486.7 540 493.3 540 500 526.7 500 513.3 500 500 500 500 493.3 500 486.7 500 480 480 480 460 480 440 480 440 486.7 440 493.3 440 500 433.3 500 426.7 500 420 500 420 493.3 420 486.7 420 480 406.7 480 393.3 480 380 480 380 486.7 380 493.3 380 500 373.3 500 366.7 500 360 500 360 493.3 360 486.7 360 480 353.3 480 346.7 480 340 480 340 486.7 340 493.3 340 500 320 500 300 500 280 500 280 493.3 280 486.7 280 480 266.7 480 253.3 480 240 480 240 473.3 240 466.7 240 460 233.3 460 226.7 460 220 460 220 466.7 220 473.3 220 480 213.3 480 206.7 480 200 480 200 466.7 200 453.3 200 440 193.3 440 186.7 440 180 440 180 433.3 180 426.7 180 420 186.7 420 193.3 420 200 420 200 413.3 200 406.7 200 400 193.3 400 186.7 400 180 400 180 393.3 180 386.7 180 380 173.3 380 166.7 380 160 380 160 373.3 160 366.7 160 360 166.7 360 173.3 360 180 360 180 353.3 180 346.7 180 340 193.3 340 206.7 340 220 340 220 360 220 380 220 400 226.7 400 233.3 400 240 400 240 406.7 240 413.3 240 420 233.3 420 226.7 420 220 420 220 426.7 220 433.3 220 440 226.7 440 233.3 440 240 440 240 433.3 240 426.7 240 420 246.7 420 253.3 420 260 420 260 380 260 340 260 300 246.7 300 233.3 300 220 300 220 293.3 220 286.7 220 280 226.7 280 233.3 280 240 280 240 273.3 240 266.7 240 260 253.3 260 266.7 260 280 260 280 253.3 280 246.7 280 240 286.7 240 293.3 240 300 240 300 233.3 300 226.7 300 220 306.7 220 313.3 220 320 220 320 233.3 320 246.7 320 260 326.7 260 333.3 260 340 260 340 233.3 340 206.7 340 180 346.7 180 353.3 180 360 180 360 166.7 360 153.3 360 140 366.7 140 373.3 140 380 140 380 133.3 380 126.7 380 120M360 200C360 206.7 360 213.3 360 220 373.3 220 386.7 220 400 220 400 213.3 400 206.7 400 200 386.7 200 373.3 200 360 200M400 220C400 233.3 400 246.7 400 260 406.7 260 413.3 260 420 260 420 246.7 420 233.3 420 220 413.3 220 406.7 220 400 220M356 287.5C331.2 291.7 308.9 308.2 297.4 330.5 288.4 347.2 286.2 367 289.7 385.4 295.2 414 317.2 438.9 345.1 447.4 347 447.9 349.2 446.8 349.9 445.1 350.1 439.5 349.9 434 350 428.4 342.3 429.3 333.5 429.8 326.9 424.9 322.4 421.7 321.8 415.7 318.6 411.6 316.9 408.5 314 406.6 311 405 310.5 404 310 403 309.5 402 313.3 399.6 317.9 401.6 321.2 403.9 326.4 407 327.5 414 333.1 416.6 338.4 419.9 344.9 418.5 350.4 416.5 350.5 412.3 352.6 408.6 355.1 405.4 343.6 404.4 331.4 400.2 324.5 390.4 318.3 380.8 317.1 368.9 318.3 357.8 319.5 352.1 322.2 346.9 326.1 342.6 323.7 335.2 324.2 327.1 327.2 319.9 333.2 319.6 338.7 322.4 343.9 325 346.3 326 348.3 328.3 351 328.5 363.8 325.2 377.4 325 390.1 328.4 392.6 329.1 394.3 326.7 396.3 325.7 401.8 322.7 407.6 319.6 414.1 319.9 417.2 326.8 418.1 335 415.3 342.1 420.5 348.2 424.1 355.9 423.5 364.1 424 374.5 421.6 385.6 414.5 393.6 407.1 401.1 396.7 404.5 386.4 405.5 389.7 409.2 391.4 414.1 391.5 419 391.5 427.3 391.5 435.6 391.5 443.9 391.5 446.2 394 448.1 396.2 447.5 420.9 440 441.1 419.7 449.2 395.2 458.9 367 451.9 333.6 430.9 312.2 417.5 297.6 398.6 288.4 379 286.5 371.3 286.7 363.6 285.8 356 287.5M480 440C480 446.7 480 453.3 480 460 486.7 460 493.3 460 500 460 500 453.3 500 446.7 500 440 493.3 440 486.7 440 480 440ZM220 140C226.7 140 233.3 140 240 140 240 146.7 240 153.3 240 160 233.3 160 226.7 160 220 160 220 153.3 220 146.7 220 140ZM200 160C206.7 160 213.3 160 220 160 220 166.7 220 173.3 220 180 213.3 180 206.7 180 200 180 200 173.3 200 166.7 200 160ZM240 160C246.7 160 253.3 160 260 160 260 173.3 260 186.7 260 200 246.7 200 233.3 200 220 200 220 193.3 220 186.7 220 180 226.7 180 233.3 180 240 180 240 173.3 240 166.7 240 160ZM280 160C286.7 160 293.3 160 300 160 300 180 300 200 300 220 286.7 220 273.3 220 260 220 260 213.3 260 206.7 260 200 266.7 200 273.3 200 280 200 280 186.7 280 173.3 280 160ZM320 160C326.7 160 333.3 160 340 160 340 166.7 340 173.3 340 180 333.3 180 326.7 180 320 180 320 173.3 320 166.7 320 160ZM520 160C526.7 160 533.3 160 540 160 540 166.7 540 173.3 540 180 533.3 180 526.7 180 520 180 520 173.3 520 166.7 520 160ZM100 200C113.3 200 126.7 200 140 200 140 206.7 140 213.3 140 220 146.7 220 153.3 220 160 220 160 226.7 160 233.3 160 240 146.7 240 133.3 240 120 240 120 233.3 120 226.7 120 220 113.3 220 106.7 220 100 220 100 213.3 100 206.7 100 200ZM160 200C173.3 200 186.7 200 200 200 200 206.7 200 213.3 200 220 186.7 220 173.3 220 160 220 160 213.3 160 206.7 160 200ZM60 220C66.7 220 73.3 220 80 220 80 233.3 80 246.7 80 260 86.7 260 93.3 260 100 260 100 253.3 100 246.7 100 240 106.7 240 113.3 240 120 240 120 253.3 120 266.7 120 280 126.7 280 133.3 280 140 280 140 286.7 140 293.3 140 300 133.3 300 126.7 300 120 300 120 306.7 120 313.3 120 320 113.3 320 106.7 320 100 320 100 326.7 100 333.3 100 340 106.7 340 113.3 340 120 340 120 346.7 120 353.3 120 360 113.3 360 106.7 360 100 360 100 366.7 100 373.3 100 380 93.3 380 86.7 380 80 380 80 366.7 80 353.3 80 340 73.3 340 66.7 340 60 340 60 346.7 60 353.3 60 360 53.3 360 46.7 360 40 360 40 346.7 40 333.3 40 320 53.3 320 66.7 320 80 320 80 313.3 80 306.7 80 300 86.7 300 93.3 300 100 300 100 293.3 100 286.7 100 280 93.3 280 86.7 280 80 280 80 286.7 80 293.3 80 300 66.7 300 53.3 300 40 300 40 286.7 40 273.3 40 260 46.7 260 53.3 260 60 260 60 246.7 60 233.3 60 220ZM200 220C213.3 220 226.7 220 240 220 240 233.3 240 246.7 240 260 233.3 260 226.7 260 220 260 220 253.3 220 246.7 220 240 213.3 240 206.7 240 200 240 200 233.3 200 226.7 200 220ZM460 220C466.7 220 473.3 220 480 220 480 226.7 480 233.3 480 240 473.3 240 466.7 240 460 240 460 233.3 460 226.7 460 220ZM660 220C666.7 220 673.3 220 680 220 680 226.7 680 233.3 680 240 686.7 240 693.3 240 700 240 700 246.7 700 253.3 700 260 693.3 260 686.7 260 680 260 680 280 680 300 680 320 673.3 320 666.7 320 660 320 660 306.7 660 293.3 660 280 653.3 280 646.7 280 640 280 640 273.3 640 266.7 640 260 646.7 260 653.3 260 660 260 660 246.7 660 233.3 660 220ZM160 240C173.3 240 186.7 240 200 240 200 246.7 200 253.3 200 260 186.7 260 173.3 260 160 260 160 253.3 160 246.7 160 240ZM160 280C166.7 280 173.3 280 180 280 180 286.7 180 293.3 180 300 173.3 300 166.7 300 160 300 160 293.3 160 286.7 160 280ZM520 280C526.7 280 533.3 280 540 280 540 286.7 540 293.3 540 300 533.3 300 526.7 300 520 300 520 293.3 520 286.7 520 280ZM500 300C506.7 300 513.3 300 520 300 520 306.7 520 313.3 520 320 513.3 320 506.7 320 500 320 500 313.3 500 306.7 500 300ZM120 320C140 320 160 320 180 320 180 326.7 180 333.3 180 340 173.3 340 166.7 340 160 340 160 346.7 160 353.3 160 360 153.3 360 146.7 360 140 360 140 353.3 140 346.7 140 340 133.3 340 126.7 340 120 340 120 333.3 120 326.7 120 320ZM220 320C226.7 320 233.3 320 240 320 240 326.7 240 333.3 240 340 233.3 340 226.7 340 220 340 220 333.3 220 326.7 220 320ZM500 340C506.7 340 513.3 340 520 340 520 346.7 520 353.3 520 360 513.3 360 506.7 360 500 360 500 353.3 500 346.7 500 340ZM680 340C686.7 340 693.3 340 700 340 700 380 700 420 700 460 693.3 460 686.7 460 680 460 680 420 680 380 680 340ZM120 360C126.7 360 133.3 360 140 360 140 366.7 140 373.3 140 380 133.3 380 126.7 380 120 380 120 373.3 120 366.7 120 360ZM40 380C53.3 380 66.7 380 80 380 80 393.3 80 406.7 80 420 73.3 420 66.7 420 60 420 60 413.3 60 406.7 60 400 53.3 400 46.7 400 40 400 40 393.3 40 386.7 40 380ZM100 380C106.7 380 113.3 380 120 380 120 393.3 120 406.7 120 420 113.3 420 106.7 420 100 420 100 406.7 100 393.3 100 380ZM160 400C166.7 400 173.3 400 180 400 180 406.7 180 413.3 180 420 173.3 420 166.7 420 160 420 160 413.3 160 406.7 160 400ZM40 420C46.7 420 53.3 420 60 420 60 433.3 60 446.7 60 460 66.7 460 73.3 460 80 460 80 466.7 80 473.3 80 480 73.3 480 66.7 480 60 480 60 493.3 60 506.7 60 520 66.7 520 73.3 520 80 520 80 506.7 80 493.3 80 480 86.7 480 93.3 480 100 480 100 486.7 100 493.3 100 500 106.7 500 113.3 500 120 500 120 506.7 120 513.3 120 520 113.3 520 106.7 520 100 520 100 526.7 100 533.3 100 540 80 540 60 540 40 540 40 500 40 460 40 420ZM120 420C126.7 420 133.3 420 140 420 140 426.7 140 433.3 140 440 133.3 440 126.7 440 120 440 120 433.3 120 426.7 120 420ZM160 440C166.7 440 173.3 440 180 440 180 446.7 180 453.3 180 460 173.3 460 166.7 460 160 460 160 453.3 160 446.7 160 440ZM100 460C106.7 460 113.3 460 120 460 120 466.7 120 473.3 120 480 113.3 480 106.7 480 100 480 100 473.3 100 466.7 100 460ZM540 460C546.7 460 553.3 460 560 460 560 466.7 560 473.3 560 480 553.3 480 546.7 480 540 480 540 473.3 540 466.7 540 460ZM120 480C146.7 480 173.3 480 200 480 200 486.7 200 493.3 200 500 186.7 500 173.3 500 160 500 160 506.7 160 513.3 160 520 173.3 520 186.7 520 200 520 200 526.7 200 533.3 200 540 173.3 540 146.7 540 120 540 120 533.3 120 526.7 120 520 126.7 520 133.3 520 140 520 140 513.3 140 506.7 140 500 133.3 500 126.7 500 120 500 120 493.3 120 486.7 120 480ZM680 480C686.7 480 693.3 480 700 480 700 486.7 700 493.3 700 500 693.3 500 686.7 500 680 500 680 493.3 680 486.7 680 480ZM240 500C253.3 500 266.7 500 280 500 280 513.3 280 526.7 280 540 286.7 540 293.3 540 300 540 300 546.7 300 553.3 300 560 293.3 560 286.7 560 280 560 280 566.7 280 573.3 280 580 273.3 580 266.7 580 260 580 260 573.3 260 566.7 260 560 253.3 560 246.7 560 240 560 240 553.3 240 546.7 240 540 246.7 540 253.3 540 260 540 260 533.3 260 526.7 260 520 253.3 520 246.7 520 240 520 240 513.3 240 506.7 240 500ZM380 500C393.3 500 406.7 500 420 500 420 506.7 420 513.3 420 520 426.7 520 433.3 520 440 520 440 513.3 440 506.7 440 500 446.7 500 453.3 500 460 500 460 520 460 540 460 560 453.3 560 446.7 560 440 560 440 553.3 440 546.7 440 540 433.3 540 426.7 540 420 540 420 546.7 420 553.3 420 560 426.7 560 433.3 560 440 560 440 566.7 440 573.3 440 580 446.7 580 453.3 580 460 580 460 586.7 460 593.3 460 600 466.7 600 473.3 600 480 600 480 606.7 480 613.3 480 620 466.7 620 453.3 620 440 620 440 613.3 440 606.7 440 600 433.3 600 426.7 600 420 600 420 593.3 420 586.7 420 580 413.3 580 406.7 580 400 580 400 566.7 400 553.3 400 540 393.3 540 386.7 540 380 540 380 526.7 380 513.3 380 500ZM480 500C486.7 500 493.3 500 500 500 500 506.7 500 513.3 500 520 493.3 520 486.7 520 480 520 480 513.3 480 506.7 480 500ZM220 520C226.7 520 233.3 520 240 520 240 526.7 240 533.3 240 540 233.3 540 226.7 540 220 540 220 533.3 220 526.7 220 520ZM320 520C333.3 520 346.7 520 360 520 360 526.7 360 533.3 360 540 366.7 540 373.3 540 380 540 380 546.7 380 553.3 380 560 360 560 340 560 320 560 320 546.7 320 533.3 320 520ZM500 520C546.7 520 593.3 520 640 520 640 526.7 640 533.3 640 540 653.3 540 666.7 540 680 540 680 546.7 680 553.3 680 560 666.7 560 653.3 560 640 560 640 566.7 640 573.3 640 580 653.3 580 666.7 580 680 580 680 586.7 680 593.3 680 600 686.7 600 693.3 600 700 600 700 626.7 700 653.3 700 680 673.3 680 646.7 680 620 680 620 673.3 620 666.7 620 660 633.3 660 646.7 660 660 660 660 653.3 660 646.7 660 640 666.7 640 673.3 640 680 640 680 633.3 680 626.7 680 620 673.3 620 666.7 620 660 620 660 613.3 660 606.7 660 600 646.7 600 633.3 600 620 600 620 606.7 620 613.3 620 620 613.3 620 606.7 620 600 620 600 626.7 600 633.3 600 640 593.3 640 586.7 640 580 640 580 633.3 580 626.7 580 620 566.7 620 553.3 620 540 620 540 626.7 540 633.3 540 640 526.7 640 513.3 640 500 640 500 620 500 600 500 580 486.7 580 473.3 580 460 580 460 573.3 460 566.7 460 560 480 560 500 560 520 560 520 553.3 520 546.7 520 540 513.3 540 506.7 540 500 540 500 533.3 500 526.7 500 520M540 540C540 560 540 580 540 600 560 600 580 600 600 600 600 580 600 560 600 540 580 540 560 540 540 540ZM200 540C206.7 540 213.3 540 220 540 220 553.3 220 566.7 220 580 213.3 580 206.7 580 200 580 200 566.7 200 553.3 200 540ZM40 560C86.7 560 133.3 560 180 560 180 606.7 180 653.3 180 700 133.3 700 86.7 700 40 700 40 653.3 40 606.7 40 560M60 580C60 613.3 60 646.7 60 680 93.3 680 126.7 680 160 680 160 646.7 160 613.3 160 580 126.7 580 93.3 580 60 580ZM560 560C566.7 560 573.3 560 580 560 580 566.7 580 573.3 580 580 573.3 580 566.7 580 560 580 560 573.3 560 566.7 560 560ZM240 580C246.7 580 253.3 580 260 580 260 586.7 260 593.3 260 600 253.3 600 246.7 600 240 600 240 593.3 240 586.7 240 580ZM280 580C286.7 580 293.3 580 300 580 300 586.7 300 593.3 300 600 293.3 600 286.7 600 280 600 280 593.3 280 586.7 280 580ZM360 580C373.3 580 386.7 580 400 580 400 586.7 400 593.3 400 600 393.3 600 386.7 600 380 600 380 613.3 380 626.7 380 640 373.3 640 366.7 640 360 640 360 646.7 360 653.3 360 660 353.3 660 346.7 660 340 660 340 653.3 340 646.7 340 640 333.3 640 326.7 640 320 640 320 633.3 320 626.7 320 620 333.3 620 346.7 620 360 620 360 606.7 360 593.3 360 580ZM80 600C100 600 120 600 140 600 140 620 140 640 140 660 120 660 100 660 80 660 80 640 80 620 80 600ZM200 600C206.7 600 213.3 600 220 600 220 613.3 220 626.7 220 640 213.3 640 206.7 640 200 640 200 626.7 200 613.3 200 600ZM240 620C246.7 620 253.3 620 260 620 260 633.3 260 646.7 260 660 246.7 660 233.3 660 220 660 220 653.3 220 646.7 220 640 226.7 640 233.3 640 240 640 240 633.3 240 626.7 240 620ZM400 620C406.7 620 413.3 620 420 620 420 640 420 660 420 680 406.7 680 393.3 680 380 680 380 686.7 380 693.3 380 700 366.7 700 353.3 700 340 700 340 693.3 340 686.7 340 680 346.7 680 353.3 680 360 680 360 673.3 360 666.7 360 660 373.3 660 386.7 660 400 660 400 646.7 400 633.3 400 620ZM620 620C633.3 620 646.7 620 660 620 660 626.7 660 633.3 660 640 646.7 640 633.3 640 620 640 620 633.3 620 626.7 620 620ZM280 640C293.3 640 306.7 640 320 640 320 660 320 680 320 700 306.7 700 293.3 700 280 700 280 693.3 280 686.7 280 680 286.7 680 293.3 680 300 680 300 673.3 300 666.7 300 660 293.3 660 286.7 660 280 660 280 653.3 280 646.7 280 640ZM480 640C486.7 640 493.3 640 500 640 500 646.7 500 653.3 500 660 493.3 660 486.7 660 480 660 480 653.3 480 646.7 480 640ZM600 640C606.7 640 613.3 640 620 640 620 646.7 620 653.3 620 660 613.3 660 606.7 660 600 660 600 653.3 600 646.7 600 640ZM440 660C446.7 660 453.3 660 460 660 460 666.7 460 673.3 460 680 453.3 680 446.7 680 440 680 440 673.3 440 666.7 440 660ZM540 660C553.3 660 566.7 660 580 660 580 673.3 580 686.7 580 700 560 700 540 700 520 700 520 693.3 520 686.7 520 680 526.7 680 533.3 680 540 680 540 673.3 540 666.7 540 660ZM240 680C246.7 680 253.3 680 260 680 260 686.7 260 693.3 260 700 253.3 700 246.7 700 240 700 240 693.3 240 686.7 240 680ZM460 680C466.7 680 473.3 680 480 680 480 686.7 480 693.3 480 700 473.3 700 466.7 700 460 700 460 693.3 460 686.7 460 680ZM600 680C606.7 680 613.3 680 620 680 620 686.7 620 693.3 620 700 613.3 700 606.7 700 600 700 600 693.3 600 686.7 600 680Z"/></svg>