<svg xmlns="http://www.w3.org/2000/svg" width="820" height="820" viewBox="0 0 820 820" version="1.1"><path fill="#006599" opacity="1" d="M40 40C86.7 40 133.3 40 180 40 180 86.7 180 133.3 180 180 133.3 180 86.7 180 40 180 40 133.3 40 86.7 40 40M60 60C60 93.3 60 126.7 60 160 93.3 160 126.7 160 160 160 160 126.7 160 93.3 160 60 126.7 60 93.3 60 60 60ZM200 40C206.7 40 213.3 40 220 40 220 46.7 220 53.3 220 60 233.3 60 246.7 60 260 60 260 66.7 260 73.3 260 80 266.7 80 273.3 80 280 80 280 86.7 280 93.3 280 100 286.7 100 293.3 100 300 100 300 113.3 300 126.7 300 140 286.7 140 273.3 140 260 140 260 160 260 180 260 200 266.7 200 273.3 200 280 200 280 213.3 280 226.7 280 240 273.3 240 266.7 240 260 240 260 233.3 260 226.7 260 220 253.3 220 246.7 220 240 220 240 226.7 240 233.3 240 240 246.7 240 253.3 240 260 240 260 253.3 260 266.7 260 280 253.3 280 246.7 280 240 280 240 273.3 240 266.7 240 260 213.3 260 186.7 260 160 260 160 253.3 160 246.7 160 240 173.3 240 186.7 240 200 240 200 206.7 200 173.3 200 140 206.7 140 213.3 140 220 140 220 160 220 180 220 200 226.7 200 233.3 200 240 200 240 180 240 160 240 140 233.3 140 226.7 140 220 140 220 126.7 220 113.3 220 100 213.3 100 206.7 100 200 100 200 80 200 60 200 40ZM260 40C266.7 40 273.3 40 280 40 280 46.7 280 53.3 280 60 273.3 60 266.7 60 260 60 260 53.3 260 46.7 260 40ZM340 40C353.3 40 366.7 40 380 40 380 46.7 380 53.3 380 60 386.7 60 393.3 60 400 60 400 73.3 400 86.7 400 100 393.3 100 386.7 100 380 100 380 93.3 380 86.7 380 80 366.7 80 353.3 80 340 80 340 93.3 340 106.7 340 120 333.3 120 326.7 120 320 120 320 100 320 80 320 60 326.7 60 333.3 60 340 60 340 53.3 340 46.7 340 40ZM420 40C426.7 40 433.3 40 440 40 440 46.7 440 53.3 440 60 433.3 60 426.7 60 420 60 420 53.3 420 46.7 420 40ZM500 40C506.7 40 513.3 40 520 40 520 46.7 520 53.3 520 60 513.3 60 506.7 60 500 60 500 53.3 500 46.7 500 40ZM600 40C606.7 40 613.3 40 620 40 620 46.7 620 53.3 620 60 613.3 60 606.7 60 600 60 600 53.3 600 46.7 600 40ZM640 40C686.7 40 733.3 40 780 40 780 86.7 780 133.3 780 180 733.3 180 686.7 180 640 180 640 133.3 640 86.7 640 40M660 60C660 93.3 660 126.7 660 160 693.3 160 726.7 160 760 160 760 126.7 760 93.3 760 60 726.7 60 693.3 60 660 60ZM280 60C286.7 60 293.3 60 300 60 300 66.7 300 73.3 300 80 293.3 80 286.7 80 280 80 280 73.3 280 66.7 280 60ZM440 60C446.7 60 453.3 60 460 60 460 66.7 460 73.3 460 80 453.3 80 446.7 80 440 80 440 73.3 440 66.7 440 60ZM480 60C486.7 60 493.3 60 500 60 500 66.7 500 73.3 500 80 493.3 80 486.7 80 480 80 480 73.3 480 66.7 480 60ZM540 60C560 60 580 60 600 60 600 66.7 600 73.3 600 80 606.7 80 613.3 80 620 80 620 86.7 620 93.3 620 100 613.3 100 606.7 100 600 100 600 106.7 600 113.3 600 120 593.3 120 586.7 120 580 120 580 126.7 580 133.3 580 140 593.3 140 606.7 140 620 140 620 160 620 180 620 200 640 200 660 200 680 200 680 213.3 680 226.7 680 240 686.7 240 693.3 240 700 240 700 260 700 280 700 300 693.3 300 686.7 300 680 300 680 293.3 680 286.7 680 280 673.3 280 666.7 280 660 280 660 286.7 660 293.3 660 300 653.3 300 646.7 300 640 300 640 313.3 640 326.7 640 340 633.3 340 626.7 340 620 340 620 346.7 620 353.3 620 360 613.3 360 606.7 360 600 360 600 353.3 600 346.7 600 340 593.3 340 586.7 340 580 340 580 333.3 580 326.7 580 320 586.7 320 593.3 320 600 320 600 313.3 600 306.7 600 300 606.7 300 613.3 300 620 300 620 293.3 620 286.7 620 280 626.7 280 633.3 280 640 280 640 266.7 640 253.3 640 240 646.7 240 653.3 240 660 240 660 233.3 660 226.7 660 220 646.7 220 633.3 220 620 220 620 226.7 620 233.3 620 240 613.3 240 606.7 240 600 240 600 213.3 600 186.7 600 160 593.3 160 586.7 160 580 160 580 166.7 580 173.3 580 180 573.3 180 566.7 180 560 180 560 173.3 560 166.7 560 160 553.3 160 546.7 160 540 160 540 153.3 540 146.7 540 140 546.7 140 553.3 140 560 140 560 133.3 560 126.7 560 120 533.3 120 506.7 120 480 120 480 113.3 480 106.7 480 100 486.7 100 493.3 100 500 100 500 93.3 500 86.7 500 80 506.7 80 513.3 80 520 80 520 86.7 520 93.3 520 100 533.3 100 546.7 100 560 100 560 93.3 560 86.7 560 80 553.3 80 546.7 80 540 80 540 73.3 540 66.7 540 60ZM80 80C100 80 120 80 140 80 140 100 140 120 140 140 120 140 100 140 80 140 80 120 80 100 80 80ZM420 80C426.7 80 433.3 80 440 80 440 86.7 440 93.3 440 100 433.3 100 426.7 100 420 100 420 93.3 420 86.7 420 80ZM460 80C466.7 80 473.3 80 480 80 480 86.7 480 93.3 480 100 473.3 100 466.7 100 460 100 460 93.3 460 86.7 460 80ZM680 80C700 80 720 80 740 80 740 100 740 120 740 140 720 140 700 140 680 140 680 120 680 100 680 80ZM400 100C406.7 100 413.3 100 420 100 420 113.3 420 126.7 420 140 400 140 380 140 360 140 360 146.7 360 153.3 360 160 353.3 160 346.7 160 340 160 340 166.7 340 173.3 340 180 333.3 180 326.7 180 320 180 320 166.7 320 153.3 320 140 326.7 140 333.3 140 340 140 340 133.3 340 126.7 340 120 360 120 380 120 400 120 400 113.3 400 106.7 400 100ZM460 120C466.7 120 473.3 120 480 120 480 126.7 480 133.3 480 140 486.7 140 493.3 140 500 140 500 153.3 500 166.7 500 180 493.3 180 486.7 180 480 180 480 173.3 480 166.7 480 160 473.3 160 466.7 160 460 160 460 166.7 460 173.3 460 180 453.3 180 446.7 180 440 180 440 166.7 440 153.3 440 140 446.7 140 453.3 140 460 140 460 133.3 460 126.7 460 120ZM280 160C286.7 160 293.3 160 300 160 300 173.3 300 186.7 300 200 293.3 200 286.7 200 280 200 280 186.7 280 173.3 280 160ZM360 160C366.7 160 373.3 160 380 160 380 166.7 380 173.3 380 180 386.7 180 393.3 180 400 180 400 193.3 400 206.7 400 220 393.3 220 386.7 220 380 220 380 213.3 380 206.7 380 200 366.7 200 353.3 200 340 200 340 193.3 340 186.7 340 180 346.7 180 353.3 180 360 180 360 173.3 360 166.7 360 160ZM400 160C406.7 160 413.3 160 420 160 420 166.7 420 173.3 420 180 413.3 180 406.7 180 400 180 400 173.3 400 166.7 400 160ZM520 160C526.7 160 533.3 160 540 160 540 166.7 540 173.3 540 180 533.3 180 526.7 180 520 180 520 173.3 520 166.7 520 160ZM460 180C466.7 180 473.3 180 480 180 480 193.3 480 206.7 480 220 500 220 520 220 540 220 540 213.3 540 206.7 540 200 553.3 200 566.7 200 580 200 580 206.7 580 213.3 580 220 573.3 220 566.7 220 560 220 560 226.7 560 233.3 560 240 573.3 240 586.7 240 600 240 600 246.7 600 253.3 600 260 606.7 260 613.3 260 620 260 620 266.7 620 273.3 620 280 606.7 280 593.3 280 580 280 580 293.3 580 306.7 580 320 566.7 320 553.3 320 540 320 540 306.7 540 293.3 540 280 546.7 280 553.3 280 560 280 560 273.3 560 266.7 560 260 553.3 260 546.7 260 540 260 540 253.3 540 246.7 540 240 526.7 240 513.3 240 500 240 500 246.7 500 253.3 500 260 493.3 260 486.7 260 480 260 480 253.3 480 246.7 480 240 473.3 240 466.7 240 460 240 460 246.7 460 253.3 460 260 453.3 260 446.7 260 440 260 440 253.3 440 246.7 440 240 433.3 240 426.7 240 420 240 420 226.7 420 213.3 420 200 426.7 200 433.3 200 440 200 440 206.7 440 213.3 440 220 446.7 220 453.3 220 460 220 460 206.7 460 193.3 460 180ZM500 180C506.7 180 513.3 180 520 180 520 186.7 520 193.3 520 200 513.3 200 506.7 200 500 200 500 193.3 500 186.7 500 180ZM80 200C100 200 120 200 140 200 140 206.7 140 213.3 140 220 133.3 220 126.7 220 120 220 120 226.7 120 233.3 120 240 113.3 240 106.7 240 100 240 100 233.3 100 226.7 100 220 93.3 220 86.7 220 80 220 80 213.3 80 206.7 80 200ZM160 200C166.7 200 173.3 200 180 200 180 206.7 180 213.3 180 220 173.3 220 166.7 220 160 220 160 213.3 160 206.7 160 200ZM300 200C306.7 200 313.3 200 320 200 320 213.3 320 226.7 320 240 313.3 240 306.7 240 300 240 300 226.7 300 213.3 300 200ZM720 200C740 200 760 200 780 200 780 206.7 780 213.3 780 220 760 220 740 220 720 220 720 213.3 720 206.7 720 200ZM40 220C53.3 220 66.7 220 80 220 80 233.3 80 246.7 80 260 66.7 260 53.3 260 40 260 40 246.7 40 233.3 40 220ZM140 220C146.7 220 153.3 220 160 220 160 226.7 160 233.3 160 240 153.3 240 146.7 240 140 240 140 233.3 140 226.7 140 220ZM120 240C126.7 240 133.3 240 140 240 140 246.7 140 253.3 140 260 133.3 260 126.7 260 120 260 120 253.3 120 246.7 120 240ZM280 240C286.7 240 293.3 240 300 240 300 246.7 300 253.3 300 260 293.3 260 286.7 260 280 260 280 253.3 280 246.7 280 240ZM320 240C326.7 240 333.3 240 340 240 340 246.7 340 253.3 340 260 333.3 260 326.7 260 320 260 320 253.3 320 246.7 320 240ZM360 240C366.7 240 373.3 240 380 240 380 246.7 380 253.3 380 260 393.3 260 406.7 260 420 260 420 266.7 420 273.3 420 280 433.3 280 446.7 280 460 280 460 286.7 460 293.3 460 300 466.7 300 473.3 300 480 300 480 293.3 480 286.7 480 280 486.7 280 493.3 280 500 280 500 286.7 500 293.3 500 300 506.7 300 513.3 300 520 300 520 313.3 520 326.7 520 340 526.7 340 533.3 340 540 340 540 346.7 540 353.3 540 360 533.3 360 526.7 360 520 360 520 386.7 520 413.3 520 440 533.3 440 546.7 440 560 440 560 426.7 560 413.3 560 400 573.3 400 586.7 400 600 400 600 393.3 600 386.7 600 380 606.7 380 613.3 380 620 380 620 393.3 620 406.7 620 420 633.3 420 646.7 420 660 420 660 426.7 660 433.3 660 440 666.7 440 673.3 440 680 440 680 433.3 680 426.7 680 420 686.7 420 693.3 420 700 420 700 426.7 700 433.3 700 440 713.3 440 726.7 440 740 440 740 453.3 740 466.7 740 480 753.3 480 766.7 480 780 480 780 493.3 780 506.7 780 520 773.3 520 766.7 520 760 520 760 513.3 760 506.7 760 500 746.7 500 733.3 500 720 500 720 486.7 720 473.3 720 460 706.7 460 693.3 460 680 460 680 466.7 680 473.3 680 480 673.3 480 666.7 480 660 480 660 473.3 660 466.7 660 460 646.7 460 633.3 460 620 460 620 453.3 620 446.7 620 440 613.3 440 606.7 440 600 440 600 446.7 600 453.3 600 460 586.7 460 573.3 460 560 460 560 466.7 560 473.3 560 480 573.3 480 586.7 480 600 480 600 486.7 600 493.3 600 500 593.3 500 586.7 500 580 500 580 506.7 580 513.3 580 520 573.3 520 566.7 520 560 520 560 513.3 560 506.7 560 500 553.3 500 546.7 500 540 500 540 486.7 540 473.3 540 460 533.3 460 526.7 460 520 460 520 480 520 500 520 520 513.3 520 506.7 520 500 520 500 526.7 500 533.3 500 540 493.3 540 486.7 540 480 540 480 533.3 480 526.7 480 520 473.3 520 466.7 520 460 520 460 526.7 460 533.3 460 540 466.7 540 473.3 540 480 540 480 546.7 480 553.3 480 560 486.7 560 493.3 560 500 560 500 580 500 600 500 620 493.3 620 486.7 620 480 620 480 606.7 480 593.3 480 580 473.3 580 466.7 580 460 580 460 593.3 460 606.7 460 620 453.3 620 446.7 620 440 620 440 606.7 440 593.3 440 580 433.3 580 426.7 580 420 580 420 573.3 420 566.7 420 560 426.7 560 433.3 560 440 560 440 546.7 440 533.3 440 520 426.7 520 413.3 520 400 520 400 526.7 400 533.3 400 540 386.7 540 373.3 540 360 540 360 533.3 360 526.7 360 520 333.3 520 306.7 520 280 520 280 513.3 280 506.7 280 500 286.7 500 293.3 500 300 500 300 480 300 460 300 440 293.3 440 286.7 440 280 440 280 433.3 280 426.7 280 420 266.7 420 253.3 420 240 420 240 400 240 380 240 360 253.3 360 266.7 360 280 360 280 366.7 280 373.3 280 380 273.3 380 266.7 380 260 380 260 386.7 260 393.3 260 400 266.7 400 273.3 400 280 400 280 393.3 280 386.7 280 380 286.7 380 293.3 380 300 380 300 360 300 340 300 320 293.3 320 286.7 320 280 320 280 326.7 280 333.3 280 340 273.3 340 266.7 340 260 340 260 333.3 260 326.7 260 320 246.7 320 233.3 320 220 320 220 313.3 220 306.7 220 300 233.3 300 246.7 300 260 300 260 293.3 260 286.7 260 280 266.7 280 273.3 280 280 280 280 286.7 280 293.3 280 300 293.3 300 306.7 300 320 300 320 293.3 320 286.7 320 280 333.3 280 346.7 280 360 280 360 286.7 360 293.3 360 300 373.3 300 386.7 300 400 300 400 293.3 400 286.7 400 280 386.7 280 373.3 280 360 280 360 266.7 360 253.3 360 240M339.5 338.6C335.3 341.5 333.5 346.7 333.2 351.6 333.6 354.3 333.6 357.3 335.2 359.8 341.4 371.3 360.6 371.7 367.4 360.6 371 354.8 370.5 347 366.7 341.5 360.4 333.4 347.4 332.6 339.5 338.6M438.2 380.9C429.8 382.8 422.8 388.6 418.4 395.9 418.6 391.3 418.5 386.6 418.5 382 407.7 382 396.8 382 386 382 386 414.7 386 447.3 386 480 396.9 480 407.7 480.1 418.5 479.9 418.5 460.9 418.5 442 418.5 423 418.5 416.7 422.5 411 427.7 407.7 433.6 404.3 441.6 404.7 446.8 409.2 450.5 413.1 452.3 418.6 452.5 424 452.5 442.6 452.4 461.1 452.5 479.7 463.3 480.3 474.6 480 485.6 479.9 485.4 462.6 485.6 445.3 485.5 428 485.7 416.9 484.4 405.2 478.4 395.5 470.5 382.1 452.8 376.9 438.2 380.9M335 382C335 414.7 335 447.3 335 480 346 480 357 480 368 480 367.9 447.4 368.1 414.8 367.9 382.1 356.9 381.8 346 382.1 335 382ZM740 240C753.3 240 766.7 240 780 240 780 246.7 780 253.3 780 260 773.3 260 766.7 260 760 260 760 266.7 760 273.3 760 280 753.3 280 746.7 280 740 280 740 266.7 740 253.3 740 240ZM100 260C106.7 260 113.3 260 120 260 120 266.7 120 273.3 120 280 126.7 280 133.3 280 140 280 140 273.3 140 266.7 140 260 146.7 260 153.3 260 160 260 160 266.7 160 273.3 160 280 166.7 280 173.3 280 180 280 180 286.7 180 293.3 180 300 173.3 300 166.7 300 160 300 160 306.7 160 313.3 160 320 173.3 320 186.7 320 200 320 200 333.3 200 346.7 200 360 193.3 360 186.7 360 180 360 180 353.3 180 346.7 180 340 166.7 340 153.3 340 140 340 140 326.7 140 313.3 140 300 133.3 300 126.7 300 120 300 120 306.7 120 313.3 120 320 113.3 320 106.7 320 100 320 100 313.3 100 306.7 100 300 93.3 300 86.7 300 80 300 80 306.7 80 313.3 80 320 73.3 320 66.7 320 60 320 60 326.7 60 333.3 60 340 53.3 340 46.7 340 40 340 40 320 40 300 40 280 60 280 80 280 100 280 100 273.3 100 266.7 100 260ZM460 260C466.7 260 473.3 260 480 260 480 266.7 480 273.3 480 280 473.3 280 466.7 280 460 280 460 273.3 460 266.7 460 260ZM520 260C526.7 260 533.3 260 540 260 540 266.7 540 273.3 540 280 533.3 280 526.7 280 520 280 520 273.3 520 266.7 520 260ZM200 280C206.7 280 213.3 280 220 280 220 286.7 220 293.3 220 300 213.3 300 206.7 300 200 300 200 293.3 200 286.7 200 280ZM720 280C726.7 280 733.3 280 740 280 740 293.3 740 306.7 740 320 733.3 320 726.7 320 720 320 720 326.7 720 333.3 720 340 713.3 340 706.7 340 700 340 700 353.3 700 366.7 700 380 693.3 380 686.7 380 680 380 680 373.3 680 366.7 680 360 673.3 360 666.7 360 660 360 660 340 660 320 660 300 666.7 300 673.3 300 680 300 680 306.7 680 313.3 680 320 686.7 320 693.3 320 700 320 700 313.3 700 306.7 700 300 706.7 300 713.3 300 720 300 720 293.3 720 286.7 720 280ZM760 280C766.7 280 773.3 280 780 280 780 286.7 780 293.3 780 300 773.3 300 766.7 300 760 300 760 293.3 760 286.7 760 280ZM760 320C766.7 320 773.3 320 780 320 780 326.7 780 333.3 780 340 773.3 340 766.7 340 760 340 760 333.3 760 326.7 760 320ZM60 340C73.3 340 86.7 340 100 340 100 346.7 100 353.3 100 360 93.3 360 86.7 360 80 360 80 373.3 80 386.7 80 400 86.7 400 93.3 400 100 400 100 406.7 100 413.3 100 420 106.7 420 113.3 420 120 420 120 413.3 120 406.7 120 400 113.3 400 106.7 400 100 400 100 393.3 100 386.7 100 380 120 380 140 380 160 380 160 386.7 160 393.3 160 400 153.3 400 146.7 400 140 400 140 413.3 140 426.7 140 440 153.3 440 166.7 440 180 440 180 446.7 180 453.3 180 460 173.3 460 166.7 460 160 460 160 466.7 160 473.3 160 480 153.3 480 146.7 480 140 480 140 473.3 140 466.7 140 460 113.3 460 86.7 460 60 460 60 466.7 60 473.3 60 480 53.3 480 46.7 480 40 480 40 446.7 40 413.3 40 380 46.7 380 53.3 380 60 380 60 366.7 60 353.3 60 340M60 420C60 426.7 60 433.3 60 440 66.7 440 73.3 440 80 440 80 433.3 80 426.7 80 420 73.3 420 66.7 420 60 420ZM220 340C226.7 340 233.3 340 240 340 240 346.7 240 353.3 240 360 233.3 360 226.7 360 220 360 220 353.3 220 346.7 220 340ZM560 340C566.7 340 573.3 340 580 340 580 353.3 580 366.7 580 380 566.7 380 553.3 380 540 380 540 373.3 540 366.7 540 360 546.7 360 553.3 360 560 360 560 353.3 560 346.7 560 340ZM740 340C746.7 340 753.3 340 760 340 760 346.7 760 353.3 760 360 766.7 360 773.3 360 780 360 780 366.7 780 373.3 780 380 766.7 380 753.3 380 740 380 740 386.7 740 393.3 740 400 753.3 400 766.7 400 780 400 780 406.7 780 413.3 780 420 753.3 420 726.7 420 700 420 700 413.3 700 406.7 700 400 706.7 400 713.3 400 720 400 720 386.7 720 373.3 720 360 726.7 360 733.3 360 740 360 740 353.3 740 346.7 740 340ZM160 360C166.7 360 173.3 360 180 360 180 366.7 180 373.3 180 380 173.3 380 166.7 380 160 380 160 373.3 160 366.7 160 360ZM620 360C633.3 360 646.7 360 660 360 660 366.7 660 373.3 660 380 646.7 380 633.3 380 620 380 620 373.3 620 366.7 620 360ZM200 380C206.7 380 213.3 380 220 380 220 393.3 220 406.7 220 420 226.7 420 233.3 420 240 420 240 426.7 240 433.3 240 440 233.3 440 226.7 440 220 440 220 446.7 220 453.3 220 460 213.3 460 206.7 460 200 460 200 453.3 200 446.7 200 440 193.3 440 186.7 440 180 440 180 433.3 180 426.7 180 420 173.3 420 166.7 420 160 420 160 413.3 160 406.7 160 400 173.3 400 186.7 400 200 400 200 393.3 200 386.7 200 380ZM660 380C666.7 380 673.3 380 680 380 680 393.3 680 406.7 680 420 673.3 420 666.7 420 660 420 660 406.7 660 393.3 660 380ZM240 440C246.7 440 253.3 440 260 440 260 446.7 260 453.3 260 460 253.3 460 246.7 460 240 460 240 453.3 240 446.7 240 440ZM180 460C186.7 460 193.3 460 200 460 200 466.7 200 473.3 200 480 193.3 480 186.7 480 180 480 180 473.3 180 466.7 180 460ZM220 460C226.7 460 233.3 460 240 460 240 480 240 500 240 520 226.7 520 213.3 520 200 520 200 533.3 200 546.7 200 560 193.3 560 186.7 560 180 560 180 553.3 180 546.7 180 540 173.3 540 166.7 540 160 540 160 546.7 160 553.3 160 560 153.3 560 146.7 560 140 560 140 546.7 140 533.3 140 520 133.3 520 126.7 520 120 520 120 513.3 120 506.7 120 500 133.3 500 146.7 500 160 500 160 506.7 160 513.3 160 520 166.7 520 173.3 520 180 520 180 513.3 180 506.7 180 500 193.3 500 206.7 500 220 500 220 486.7 220 473.3 220 460ZM260 460C266.7 460 273.3 460 280 460 280 466.7 280 473.3 280 480 273.3 480 266.7 480 260 480 260 473.3 260 466.7 260 460ZM100 480C106.7 480 113.3 480 120 480 120 486.7 120 493.3 120 500 113.3 500 106.7 500 100 500 100 493.3 100 486.7 100 480ZM160 480C166.7 480 173.3 480 180 480 180 486.7 180 493.3 180 500 173.3 500 166.7 500 160 500 160 493.3 160 486.7 160 480ZM640 480C646.7 480 653.3 480 660 480 660 486.7 660 493.3 660 500 653.3 500 646.7 500 640 500 640 493.3 640 486.7 640 480ZM80 500C86.7 500 93.3 500 100 500 100 506.7 100 513.3 100 520 93.3 520 86.7 520 80 520 80 513.3 80 506.7 80 500ZM620 500C626.7 500 633.3 500 640 500 640 506.7 640 513.3 640 520 646.7 520 653.3 520 660 520 660 526.7 660 533.3 660 540 646.7 540 633.3 540 620 540 620 526.7 620 513.3 620 500ZM660 500C666.7 500 673.3 500 680 500 680 506.7 680 513.3 680 520 673.3 520 666.7 520 660 520 660 513.3 660 506.7 660 500ZM40 520C53.3 520 66.7 520 80 520 80 526.7 80 533.3 80 540 86.7 540 93.3 540 100 540 100 546.7 100 553.3 100 560 86.7 560 73.3 560 60 560 60 580 60 600 60 620 53.3 620 46.7 620 40 620 40 586.7 40 553.3 40 520ZM240 520C246.7 520 253.3 520 260 520 260 526.7 260 533.3 260 540 286.7 540 313.3 540 340 540 340 546.7 340 553.3 340 560 333.3 560 326.7 560 320 560 320 566.7 320 573.3 320 580 313.3 580 306.7 580 300 580 300 573.3 300 566.7 300 560 293.3 560 286.7 560 280 560 280 566.7 280 573.3 280 580 286.7 580 293.3 580 300 580 300 593.3 300 606.7 300 620 293.3 620 286.7 620 280 620 280 626.7 280 633.3 280 640 266.7 640 253.3 640 240 640 240 633.3 240 626.7 240 620 246.7 620 253.3 620 260 620 260 613.3 260 606.7 260 600 253.3 600 246.7 600 240 600 240 606.7 240 613.3 240 620 233.3 620 226.7 620 220 620 220 626.7 220 633.3 220 640 213.3 640 206.7 640 200 640 200 626.7 200 613.3 200 600 193.3 600 186.7 600 180 600 180 593.3 180 586.7 180 580 206.7 580 233.3 580 260 580 260 573.3 260 566.7 260 560 253.3 560 246.7 560 240 560 240 546.7 240 533.3 240 520ZM680 520C706.7 520 733.3 520 760 520 760 526.7 760 533.3 760 540 746.7 540 733.3 540 720 540 720 546.7 720 553.3 720 560 740 560 760 560 780 560 780 566.7 780 573.3 780 580 753.3 580 726.7 580 700 580 700 566.7 700 553.3 700 540 693.3 540 686.7 540 680 540 680 533.3 680 526.7 680 520ZM520 540C526.7 540 533.3 540 540 540 540 546.7 540 553.3 540 560 533.3 560 526.7 560 520 560 520 553.3 520 546.7 520 540ZM600 540C606.7 540 613.3 540 620 540 620 553.3 620 566.7 620 580 613.3 580 606.7 580 600 580 600 586.7 600 593.3 600 600 606.7 600 613.3 600 620 600 620 593.3 620 586.7 620 580 626.7 580 633.3 580 640 580 640 586.7 640 593.3 640 600 646.7 600 653.3 600 660 600 660 593.3 660 586.7 660 580 653.3 580 646.7 580 640 580 640 573.3 640 566.7 640 560 646.7 560 653.3 560 660 560 660 553.3 660 546.7 660 540 666.7 540 673.3 540 680 540 680 553.3 680 566.7 680 580 686.7 580 693.3 580 700 580 700 586.7 700 593.3 700 600 720 600 740 600 760 600 760 613.3 760 626.7 760 640 766.7 640 773.3 640 780 640 780 646.7 780 653.3 780 660 773.3 660 766.7 660 760 660 760 666.7 760 673.3 760 680 766.7 680 773.3 680 780 680 780 686.7 780 693.3 780 700 766.7 700 753.3 700 740 700 740 706.7 740 713.3 740 720 733.3 720 726.7 720 720 720 720 706.7 720 693.3 720 680 726.7 680 733.3 680 740 680 740 660 740 640 740 620 726.7 620 713.3 620 700 620 700 626.7 700 633.3 700 640 706.7 640 713.3 640 720 640 720 646.7 720 653.3 720 660 713.3 660 706.7 660 700 660 700 680 700 700 700 720 693.3 720 686.7 720 680 720 680 713.3 680 706.7 680 700 673.3 700 666.7 700 660 700 660 706.7 660 713.3 660 720 653.3 720 646.7 720 640 720 640 713.3 640 706.7 640 700 633.3 700 626.7 700 620 700 620 706.7 620 713.3 620 720 626.7 720 633.3 720 640 720 640 726.7 640 733.3 640 740 633.3 740 626.7 740 620 740 620 746.7 620 753.3 620 760 606.7 760 593.3 760 580 760 580 766.7 580 773.3 580 780 546.7 780 513.3 780 480 780 480 766.7 480 753.3 480 740 486.7 740 493.3 740 500 740 500 733.3 500 726.7 500 720 513.3 720 526.7 720 540 720 540 726.7 540 733.3 540 740 533.3 740 526.7 740 520 740 520 746.7 520 753.3 520 760 533.3 760 546.7 760 560 760 560 753.3 560 746.7 560 740 573.3 740 586.7 740 600 740 600 733.3 600 726.7 600 720 593.3 720 586.7 720 580 720 580 700 580 680 580 660 586.7 660 593.3 660 600 660 600 653.3 600 646.7 600 640 593.3 640 586.7 640 580 640 580 646.7 580 653.3 580 660 560 660 540 660 520 660 520 653.3 520 646.7 520 640 526.7 640 533.3 640 540 640 540 633.3 540 626.7 540 620 533.3 620 526.7 620 520 620 520 606.7 520 593.3 520 580 526.7 580 533.3 580 540 580 540 586.7 540 593.3 540 600 546.7 600 553.3 600 560 600 560 593.3 560 586.7 560 580 553.3 580 546.7 580 540 580 540 573.3 540 566.7 540 560 560 560 580 560 600 560 600 553.3 600 546.7 600 540M620 620C620 640 620 660 620 680 640 680 660 680 680 680 680 660 680 640 680 620 660 620 640 620 620 620ZM120 560C126.7 560 133.3 560 140 560 140 566.7 140 573.3 140 580 133.3 580 126.7 580 120 580 120 573.3 120 566.7 120 560ZM160 560C166.7 560 173.3 560 180 560 180 566.7 180 573.3 180 580 173.3 580 166.7 580 160 580 160 573.3 160 566.7 160 560ZM340 560C346.7 560 353.3 560 360 560 360 566.7 360 573.3 360 580 353.3 580 346.7 580 340 580 340 573.3 340 566.7 340 560ZM140 580C146.7 580 153.3 580 160 580 160 586.7 160 593.3 160 600 166.7 600 173.3 600 180 600 180 606.7 180 613.3 180 620 166.7 620 153.3 620 140 620 140 606.7 140 593.3 140 580ZM320 580C326.7 580 333.3 580 340 580 340 586.7 340 593.3 340 600 333.3 600 326.7 600 320 600 320 593.3 320 586.7 320 580ZM360 580C366.7 580 373.3 580 380 580 380 593.3 380 606.7 380 620 373.3 620 366.7 620 360 620 360 626.7 360 633.3 360 640 353.3 640 346.7 640 340 640 340 646.7 340 653.3 340 660 333.3 660 326.7 660 320 660 320 646.7 320 633.3 320 620 326.7 620 333.3 620 340 620 340 613.3 340 606.7 340 600 346.7 600 353.3 600 360 600 360 593.3 360 586.7 360 580ZM400 600C406.7 600 413.3 600 420 600 420 606.7 420 613.3 420 620 413.3 620 406.7 620 400 620 400 613.3 400 606.7 400 600ZM460 620C466.7 620 473.3 620 480 620 480 626.7 480 633.3 480 640 473.3 640 466.7 640 460 640 460 633.3 460 626.7 460 620ZM500 620C506.7 620 513.3 620 520 620 520 626.7 520 633.3 520 640 513.3 640 506.7 640 500 640 500 633.3 500 626.7 500 620ZM40 640C86.7 640 133.3 640 180 640 180 686.7 180 733.3 180 780 133.3 780 86.7 780 40 780 40 733.3 40 686.7 40 640M60 660C60 693.3 60 726.7 60 760 93.3 760 126.7 760 160 760 160 726.7 160 693.3 160 660 126.7 660 93.3 660 60 660ZM220 640C226.7 640 233.3 640 240 640 240 653.3 240 666.7 240 680 233.3 680 226.7 680 220 680 220 666.7 220 653.3 220 640ZM280 640C286.7 640 293.3 640 300 640 300 646.7 300 653.3 300 660 293.3 660 286.7 660 280 660 280 653.3 280 646.7 280 640ZM360 640C373.3 640 386.7 640 400 640 400 646.7 400 653.3 400 660 386.7 660 373.3 660 360 660 360 653.3 360 646.7 360 640ZM640 640C646.7 640 653.3 640 660 640 660 646.7 660 653.3 660 660 653.3 660 646.7 660 640 660 640 653.3 640 646.7 640 640ZM300 660C306.7 660 313.3 660 320 660 320 666.7 320 673.3 320 680 313.3 680 306.7 680 300 680 300 673.3 300 666.7 300 660ZM400 660C406.7 660 413.3 660 420 660 420 673.3 420 686.7 420 700 426.7 700 433.3 700 440 700 440 706.7 440 713.3 440 720 433.3 720 426.7 720 420 720 420 726.7 420 733.3 420 740 413.3 740 406.7 740 400 740 400 713.3 400 686.7 400 660ZM460 660C473.3 660 486.7 660 500 660 500 666.7 500 673.3 500 680 493.3 680 486.7 680 480 680 480 686.7 480 693.3 480 700 466.7 700 453.3 700 440 700 440 693.3 440 686.7 440 680 446.7 680 453.3 680 460 680 460 673.3 460 666.7 460 660ZM80 680C100 680 120 680 140 680 140 700 140 720 140 740 120 740 100 740 80 740 80 720 80 700 80 680ZM200 680C206.7 680 213.3 680 220 680 220 700 220 720 220 740 213.3 740 206.7 740 200 740 200 720 200 700 200 680ZM240 680C260 680 280 680 300 680 300 686.7 300 693.3 300 700 293.3 700 286.7 700 280 700 280 706.7 280 713.3 280 720 286.7 720 293.3 720 300 720 300 726.7 300 733.3 300 740 306.7 740 313.3 740 320 740 320 746.7 320 753.3 320 760 300 760 280 760 260 760 260 746.7 260 733.3 260 720 253.3 720 246.7 720 240 720 240 706.7 240 693.3 240 680ZM320 680C340 680 360 680 380 680 380 686.7 380 693.3 380 700 373.3 700 366.7 700 360 700 360 706.7 360 713.3 360 720 366.7 720 373.3 720 380 720 380 733.3 380 746.7 380 760 393.3 760 406.7 760 420 760 420 753.3 420 746.7 420 740 433.3 740 446.7 740 460 740 460 753.3 460 766.7 460 780 426.7 780 393.3 780 360 780 360 773.3 360 766.7 360 760 353.3 760 346.7 760 340 760 340 740 340 720 340 700 333.3 700 326.7 700 320 700 320 693.3 320 686.7 320 680ZM500 680C520 680 540 680 560 680 560 693.3 560 706.7 560 720 553.3 720 546.7 720 540 720 540 713.3 540 706.7 540 700 526.7 700 513.3 700 500 700 500 693.3 500 686.7 500 680ZM300 700C306.7 700 313.3 700 320 700 320 706.7 320 713.3 320 720 313.3 720 306.7 720 300 720 300 713.3 300 706.7 300 700ZM700 720C706.7 720 713.3 720 720 720 720 726.7 720 733.3 720 740 713.3 740 706.7 740 700 740 700 733.3 700 726.7 700 720ZM760 720C766.7 720 773.3 720 780 720 780 740 780 760 780 780 740 780 700 780 660 780 660 766.7 660 753.3 660 740 666.7 740 673.3 740 680 740 680 746.7 680 753.3 680 760 706.7 760 733.3 760 760 760 760 746.7 760 733.3 760 720ZM240 760C246.7 760 253.3 760 260 760 260 766.7 260 773.3 260 780 253.3 780 246.7 780 240 780 240 773.3 240 766.7 240 760ZM620 760C626.7 760 633.3 760 640 760 640 766.7 640 773.3 640 780 633.3 780 626.7 780 620 780 620 773.3 620 766.7 620 760Z"/></svg>