<svg xmlns="http://www.w3.org/2000/svg" width="740" height="740" viewBox="0 0 740 740" version="1.1"><path fill="#00c1f8" opacity="1" d="M40 40C86.7 40 133.3 40 180 40 180 86.7 180 133.3 180 180 133.3 180 86.7 180 40 180 40 133.3 40 86.7 40 40M60 60C60 93.3 60 126.7 60 160 93.3 160 126.7 160 160 160 160 126.7 160 93.3 160 60 126.7 60 93.3 60 60 60ZM200 40C206.7 40 213.3 40 220 40 220 46.7 220 53.3 220 60 226.7 60 233.3 60 240 60 240 66.7 240 73.3 240 80 246.7 80 253.3 80 260 80 260 113.3 260 146.7 260 180 253.3 180 246.7 180 240 180 240 173.3 240 166.7 240 160 233.3 160 226.7 160 220 160 220 166.7 220 173.3 220 180 226.7 180 233.3 180 240 180 240 186.7 240 193.3 240 200 233.3 200 226.7 200 220 200 220 206.7 220 213.3 220 220 213.3 220 206.7 220 200 220 200 193.3 200 166.7 200 140 206.7 140 213.3 140 220 140 220 133.3 220 126.7 220 120 226.7 120 233.3 120 240 120 240 113.3 240 106.7 240 100 226.7 100 213.3 100 200 100 200 80 200 60 200 40ZM240 40C246.7 40 253.3 40 260 40 260 46.7 260 53.3 260 60 253.3 60 246.7 60 240 60 240 53.3 240 46.7 240 40ZM280 40C293.3 40 306.7 40 320 40 320 46.7 320 53.3 320 60 313.3 60 306.7 60 300 60 300 66.7 300 73.3 300 80 286.7 80 273.3 80 260 80 260 73.3 260 66.7 260 60 266.7 60 273.3 60 280 60 280 53.3 280 46.7 280 40ZM340 40C346.7 40 353.3 40 360 40 360 46.7 360 53.3 360 60 373.3 60 386.7 60 400 60 400 53.3 400 46.7 400 40 420 40 440 40 460 40 460 53.3 460 66.7 460 80 453.3 80 446.7 80 440 80 440 86.7 440 93.3 440 100 446.7 100 453.3 100 460 100 460 113.3 460 126.7 460 140 453.3 140 446.7 140 440 140 440 133.3 440 126.7 440 120 433.3 120 426.7 120 420 120 420 113.3 420 106.7 420 100 413.3 100 406.7 100 400 100 400 93.3 400 86.7 400 80 380 80 360 80 340 80 340 66.7 340 53.3 340 40ZM500 40C513.3 40 526.7 40 540 40 540 46.7 540 53.3 540 60 526.7 60 513.3 60 500 60 500 53.3 500 46.7 500 40ZM560 40C606.7 40 653.3 40 700 40 700 86.7 700 133.3 700 180 653.3 180 606.7 180 560 180 560 133.3 560 86.7 560 40M580 60C580 93.3 580 126.7 580 160 613.3 160 646.7 160 680 160 680 126.7 680 93.3 680 60 646.7 60 613.3 60 580 60ZM480 60C486.7 60 493.3 60 500 60 500 66.7 500 73.3 500 80 493.3 80 486.7 80 480 80 480 73.3 480 66.7 480 60ZM80 80C100 80 120 80 140 80 140 100 140 120 140 140 120 140 100 140 80 140 80 120 80 100 80 80ZM460 80C466.7 80 473.3 80 480 80 480 86.7 480 93.3 480 100 473.3 100 466.7 100 460 100 460 93.3 460 86.7 460 80ZM500 80C506.7 80 513.3 80 520 80 520 86.7 520 93.3 520 100 526.7 100 533.3 100 540 100 540 113.3 540 126.7 540 140 533.3 140 526.7 140 520 140 520 133.3 520 126.7 520 120 506.7 120 493.3 120 480 120 480 113.3 480 106.7 480 100 486.7 100 493.3 100 500 100 500 93.3 500 86.7 500 80ZM600 80C620 80 640 80 660 80 660 100 660 120 660 140 640 140 620 140 600 140 600 120 600 100 600 80ZM280 100C306.7 100 333.3 100 360 100 360 106.7 360 113.3 360 120 366.7 120 373.3 120 380 120 380 113.3 380 106.7 380 100 386.7 100 393.3 100 400 100 400 106.7 400 113.3 400 120 406.7 120 413.3 120 420 120 420 126.7 420 133.3 420 140 406.7 140 393.3 140 380 140 380 153.3 380 166.7 380 180 386.7 180 393.3 180 400 180 400 186.7 400 193.3 400 200 393.3 200 386.7 200 380 200 380 206.7 380 213.3 380 220 386.7 220 393.3 220 400 220 400 226.7 400 233.3 400 240 380 240 360 240 340 240 340 246.7 340 253.3 340 260 360 260 380 260 400 260 400 253.3 400 246.7 400 240 406.7 240 413.3 240 420 240 420 246.7 420 253.3 420 260 440 260 460 260 480 260 480 266.7 480 273.3 480 280 506.7 280 533.3 280 560 280 560 286.7 560 293.3 560 300 553.3 300 546.7 300 540 300 540 306.7 540 313.3 540 320 546.7 320 553.3 320 560 320 560 340 560 360 560 380 553.3 380 546.7 380 540 380 540 393.3 540 406.7 540 420 546.7 420 553.3 420 560 420 560 406.7 560 393.3 560 380 566.7 380 573.3 380 580 380 580 400 580 420 580 440 573.3 440 566.7 440 560 440 560 446.7 560 453.3 560 460 553.3 460 546.7 460 540 460 540 453.3 540 446.7 540 440 533.3 440 526.7 440 520 440 520 453.3 520 466.7 520 480 513.3 480 506.7 480 500 480 500 473.3 500 466.7 500 460 493.3 460 486.7 460 480 460 480 466.7 480 473.3 480 480 486.7 480 493.3 480 500 480 500 506.7 500 533.3 500 560 493.3 560 486.7 560 480 560 480 566.7 480 573.3 480 580 486.7 580 493.3 580 500 580 500 573.3 500 566.7 500 560 506.7 560 513.3 560 520 560 520 546.7 520 533.3 520 520 553.3 520 586.7 520 620 520 620 506.7 620 493.3 620 480 640 480 660 480 680 480 680 486.7 680 493.3 680 500 686.7 500 693.3 500 700 500 700 520 700 540 700 560 693.3 560 686.7 560 680 560 680 566.7 680 573.3 680 580 673.3 580 666.7 580 660 580 660 560 660 540 660 520 653.3 520 646.7 520 640 520 640 540 640 560 640 580 646.7 580 653.3 580 660 580 660 586.7 660 593.3 660 600 646.7 600 633.3 600 620 600 620 606.7 620 613.3 620 620 626.7 620 633.3 620 640 620 640 633.3 640 646.7 640 660 646.7 660 653.3 660 660 660 660 666.7 660 673.3 660 680 646.7 680 633.3 680 620 680 620 666.7 620 653.3 620 640 613.3 640 606.7 640 600 640 600 633.3 600 626.7 600 620 580 620 560 620 540 620 540 626.7 540 633.3 540 640 520 640 500 640 480 640 480 646.7 480 653.3 480 660 466.7 660 453.3 660 440 660 440 653.3 440 646.7 440 640 446.7 640 453.3 640 460 640 460 633.3 460 626.7 460 620 453.3 620 446.7 620 440 620 440 613.3 440 606.7 440 600 446.7 600 453.3 600 460 600 460 593.3 460 586.7 460 580 453.3 580 446.7 580 440 580 440 586.7 440 593.3 440 600 433.3 600 426.7 600 420 600 420 593.3 420 586.7 420 580 406.7 580 393.3 580 380 580 380 586.7 380 593.3 380 600 373.3 600 366.7 600 360 600 360 580 360 560 360 540 373.3 540 386.7 540 400 540 400 546.7 400 553.3 400 560 406.7 560 413.3 560 420 560 420 553.3 420 546.7 420 540 413.3 540 406.7 540 400 540 400 533.3 400 526.7 400 520 406.7 520 413.3 520 420 520 420 506.7 420 493.3 420 480 413.3 480 406.7 480 400 480 400 486.7 400 493.3 400 500 386.7 500 373.3 500 360 500 360 493.3 360 486.7 360 480 353.3 480 346.7 480 340 480 340 493.3 340 506.7 340 520 333.3 520 326.7 520 320 520 320 513.3 320 506.7 320 500 313.3 500 306.7 500 300 500 300 493.3 300 486.7 300 480 280 480 260 480 240 480 240 473.3 240 466.7 240 460 226.7 460 213.3 460 200 460 200 453.3 200 446.7 200 440 193.3 440 186.7 440 180 440 180 433.3 180 426.7 180 420 166.7 420 153.3 420 140 420 140 413.3 140 406.7 140 400 160 400 180 400 200 400 200 406.7 200 413.3 200 420 213.3 420 226.7 420 240 420 240 426.7 240 433.3 240 440 246.7 440 253.3 440 260 440 260 433.3 260 426.7 260 420 253.3 420 246.7 420 240 420 240 413.3 240 406.7 240 400 246.7 400 253.3 400 260 400 260 393.3 260 386.7 260 380 253.3 380 246.7 380 240 380 240 373.3 240 366.7 240 360 233.3 360 226.7 360 220 360 220 353.3 220 346.7 220 340 233.3 340 246.7 340 260 340 260 326.7 260 313.3 260 300 246.7 300 233.3 300 220 300 220 313.3 220 326.7 220 340 213.3 340 206.7 340 200 340 200 346.7 200 353.3 200 360 193.3 360 186.7 360 180 360 180 353.3 180 346.7 180 340 173.3 340 166.7 340 160 340 160 346.7 160 353.3 160 360 153.3 360 146.7 360 140 360 140 346.7 140 333.3 140 320 133.3 320 126.7 320 120 320 120 313.3 120 306.7 120 300 126.7 300 133.3 300 140 300 140 293.3 140 286.7 140 280 153.3 280 166.7 280 180 280 180 273.3 180 266.7 180 260 173.3 260 166.7 260 160 260 160 253.3 160 246.7 160 240 166.7 240 173.3 240 180 240 180 233.3 180 226.7 180 220 186.7 220 193.3 220 200 220 200 240 200 260 200 280 213.3 280 226.7 280 240 280 240 273.3 240 266.7 240 260 233.3 260 226.7 260 220 260 220 253.3 220 246.7 220 240 253.3 240 286.7 240 320 240 320 233.3 320 226.7 320 220 313.3 220 306.7 220 300 220 300 213.3 300 206.7 300 200 313.3 200 326.7 200 340 200 340 206.7 340 213.3 340 220 346.7 220 353.3 220 360 220 360 193.3 360 166.7 360 140 353.3 140 346.7 140 340 140 340 153.3 340 166.7 340 180 333.3 180 326.7 180 320 180 320 173.3 320 166.7 320 160 313.3 160 306.7 160 300 160 300 153.3 300 146.7 300 140 306.7 140 313.3 140 320 140 320 133.3 320 126.7 320 120 313.3 120 306.7 120 300 120 300 126.7 300 133.3 300 140 293.3 140 286.7 140 280 140 280 126.7 280 113.3 280 100M160 300C160 306.7 160 313.3 160 320 166.7 320 173.3 320 180 320 180 313.3 180 306.7 180 300 173.3 300 166.7 300 160 300M480 300C480 306.7 480 313.3 480 320 486.7 320 493.3 320 500 320 500 313.3 500 306.7 500 300 493.3 300 486.7 300 480 300M395.2 308.7C395.7 307.3 396 305.8 396.1 304.4 380.6 315.4 372.2 333.4 366.3 351 356.2 339.7 341.8 334 328.3 327.7 319.9 323.9 311.5 320.1 302.5 317.8 301.6 328.1 308.8 336.7 317 341.9 313.7 341.9 310.5 342.3 307.3 343.2 307.3 353.9 317.9 360.8 327.3 362.5 322.7 362.8 318.2 364.4 315.2 368 319 376.3 328.4 380 337.1 380.1 334.4 381.4 332.7 383.8 331 386.1 331 388.3 330.6 390.8 332.5 392.4 335.3 395.9 340.2 396.2 344.3 396.1 333 408.9 314.3 413.2 297.9 410.2 289.3 408.3 281.8 403.4 274.8 398.3 284.6 413.6 300.4 424.2 317.1 430.9 350.1 441.9 389 436.6 416 414 428.8 403.7 439.2 389.7 443.1 373.5 451.5 373.6 461.2 371.5 466 363.9 459.1 364.9 451.6 365 445.2 362.2 450.2 362.1 455.1 360.8 459.3 358.4 461.8 356.9 464.2 354.8 464.7 351.8 457.4 354.2 449.4 354.8 442.1 351.9 440.6 341.2 434.5 331.6 426.6 324.4 419.8 318.3 410.6 315.2 401.6 315.4 405 314.7 408.5 314 411.7 312.6 414 311.5 416.8 310.7 417.8 308.1 417.4 307.6 416.5 306.5 416.1 305.9 412.4 306.2 408.8 307.2 405.2 308 406.5 306.6 409.3 305.4 408.8 303.2 403.8 303.2 398.9 305.4 395.2 308.7M500 320C500 326.7 500 333.3 500 340 506.7 340 513.3 340 520 340 520 333.3 520 326.7 520 320 513.3 320 506.7 320 500 320M500 360C500 366.7 500 373.3 500 380 506.7 380 513.3 380 520 380 520 373.3 520 366.7 520 360 513.3 360 506.7 360 500 360M480 400C480 406.7 480 413.3 480 420 493.3 420 506.7 420 520 420 520 413.3 520 406.7 520 400 506.7 400 493.3 400 480 400M440 520C440 526.7 440 533.3 440 540 453.3 540 466.7 540 480 540 480 533.3 480 526.7 480 520 466.7 520 453.3 520 440 520M540 540C540 560 540 580 540 600 560 600 580 600 600 600 600 580 600 560 600 540 580 540 560 540 540 540M480 600C480 606.7 480 613.3 480 620 493.3 620 506.7 620 520 620 520 613.3 520 606.7 520 600 506.7 600 493.3 600 480 600ZM460 140C473.3 140 486.7 140 500 140 500 153.3 500 166.7 500 180 493.3 180 486.7 180 480 180 480 173.3 480 166.7 480 160 473.3 160 466.7 160 460 160 460 153.3 460 146.7 460 140ZM280 160C286.7 160 293.3 160 300 160 300 166.7 300 173.3 300 180 293.3 180 286.7 180 280 180 280 173.3 280 166.7 280 160ZM400 160C406.7 160 413.3 160 420 160 420 166.7 420 173.3 420 180 413.3 180 406.7 180 400 180 400 173.3 400 166.7 400 160ZM440 160C446.7 160 453.3 160 460 160 460 166.7 460 173.3 460 180 453.3 180 446.7 180 440 180 440 173.3 440 166.7 440 160ZM520 160C526.7 160 533.3 160 540 160 540 173.3 540 186.7 540 200 560 200 580 200 600 200 600 206.7 600 213.3 600 220 593.3 220 586.7 220 580 220 580 226.7 580 233.3 580 240 573.3 240 566.7 240 560 240 560 246.7 560 253.3 560 260 546.7 260 533.3 260 520 260 520 253.3 520 246.7 520 240 526.7 240 533.3 240 540 240 540 233.3 540 226.7 540 220 533.3 220 526.7 220 520 220 520 226.7 520 233.3 520 240 513.3 240 506.7 240 500 240 500 233.3 500 226.7 500 220 493.3 220 486.7 220 480 220 480 213.3 480 206.7 480 200 493.3 200 506.7 200 520 200 520 186.7 520 173.3 520 160ZM260 180C266.7 180 273.3 180 280 180 280 186.7 280 193.3 280 200 273.3 200 266.7 200 260 200 260 193.3 260 186.7 260 180ZM460 180C466.7 180 473.3 180 480 180 480 186.7 480 193.3 480 200 473.3 200 466.7 200 460 200 460 193.3 460 186.7 460 180ZM80 200C100 200 120 200 140 200 140 206.7 140 213.3 140 220 146.7 220 153.3 220 160 220 160 226.7 160 233.3 160 240 153.3 240 146.7 240 140 240 140 253.3 140 266.7 140 280 133.3 280 126.7 280 120 280 120 266.7 120 253.3 120 240 113.3 240 106.7 240 100 240 100 233.3 100 226.7 100 220 93.3 220 86.7 220 80 220 80 213.3 80 206.7 80 200ZM160 200C166.7 200 173.3 200 180 200 180 206.7 180 213.3 180 220 173.3 220 166.7 220 160 220 160 213.3 160 206.7 160 200ZM400 200C406.7 200 413.3 200 420 200 420 206.7 420 213.3 420 220 413.3 220 406.7 220 400 220 400 213.3 400 206.7 400 200ZM440 200C446.7 200 453.3 200 460 200 460 213.3 460 226.7 460 240 453.3 240 446.7 240 440 240 440 226.7 440 213.3 440 200ZM640 200C660 200 680 200 700 200 700 213.3 700 226.7 700 240 693.3 240 686.7 240 680 240 680 233.3 680 226.7 680 220 666.7 220 653.3 220 640 220 640 213.3 640 206.7 640 200ZM40 220C46.7 220 53.3 220 60 220 60 226.7 60 233.3 60 240 53.3 240 46.7 240 40 240 40 233.3 40 226.7 40 220ZM620 220C626.7 220 633.3 220 640 220 640 226.7 640 233.3 640 240 653.3 240 666.7 240 680 240 680 246.7 680 253.3 680 260 686.7 260 693.3 260 700 260 700 266.7 700 273.3 700 280 693.3 280 686.7 280 680 280 680 286.7 680 293.3 680 300 673.3 300 666.7 300 660 300 660 293.3 660 286.7 660 280 653.3 280 646.7 280 640 280 640 273.3 640 266.7 640 260 633.3 260 626.7 260 620 260 620 246.7 620 233.3 620 220ZM480 240C486.7 240 493.3 240 500 240 500 246.7 500 253.3 500 260 493.3 260 486.7 260 480 260 480 253.3 480 246.7 480 240ZM580 240C586.7 240 593.3 240 600 240 600 246.7 600 253.3 600 260 593.3 260 586.7 260 580 260 580 253.3 580 246.7 580 240ZM40 280C60 280 80 280 100 280 100 300 100 320 100 340 93.3 340 86.7 340 80 340 80 333.3 80 326.7 80 320 73.3 320 66.7 320 60 320 60 313.3 60 306.7 60 300 53.3 300 46.7 300 40 300 40 293.3 40 286.7 40 280ZM580 280C593.3 280 606.7 280 620 280 620 286.7 620 293.3 620 300 606.7 300 593.3 300 580 300 580 293.3 580 286.7 580 280ZM560 300C566.7 300 573.3 300 580 300 580 306.7 580 313.3 580 320 573.3 320 566.7 320 560 320 560 313.3 560 306.7 560 300ZM620 300C626.7 300 633.3 300 640 300 640 306.7 640 313.3 640 320 653.3 320 666.7 320 680 320 680 326.7 680 333.3 680 340 673.3 340 666.7 340 660 340 660 346.7 660 353.3 660 360 646.7 360 633.3 360 620 360 620 366.7 620 373.3 620 380 613.3 380 606.7 380 600 380 600 366.7 600 353.3 600 340 593.3 340 586.7 340 580 340 580 333.3 580 326.7 580 320 593.3 320 606.7 320 620 320 620 313.3 620 306.7 620 300ZM680 300C686.7 300 693.3 300 700 300 700 306.7 700 313.3 700 320 693.3 320 686.7 320 680 320 680 313.3 680 306.7 680 300ZM40 320C46.7 320 53.3 320 60 320 60 326.7 60 333.3 60 340 53.3 340 46.7 340 40 340 40 333.3 40 326.7 40 320ZM100 340C106.7 340 113.3 340 120 340 120 353.3 120 366.7 120 380 113.3 380 106.7 380 100 380 100 386.7 100 393.3 100 400 93.3 400 86.7 400 80 400 80 393.3 80 386.7 80 380 73.3 380 66.7 380 60 380 60 373.3 60 366.7 60 360 73.3 360 86.7 360 100 360 100 353.3 100 346.7 100 340ZM160 360C166.7 360 173.3 360 180 360 180 366.7 180 373.3 180 380 173.3 380 166.7 380 160 380 160 373.3 160 366.7 160 360ZM40 380C46.7 380 53.3 380 60 380 60 386.7 60 393.3 60 400 53.3 400 46.7 400 40 400 40 393.3 40 386.7 40 380ZM120 380C126.7 380 133.3 380 140 380 140 386.7 140 393.3 140 400 133.3 400 126.7 400 120 400 120 393.3 120 386.7 120 380ZM200 380C213.3 380 226.7 380 240 380 240 386.7 240 393.3 240 400 226.7 400 213.3 400 200 400 200 393.3 200 386.7 200 380ZM680 380C686.7 380 693.3 380 700 380 700 386.7 700 393.3 700 400 693.3 400 686.7 400 680 400 680 393.3 680 386.7 680 380ZM60 400C66.7 400 73.3 400 80 400 80 406.7 80 413.3 80 420 73.3 420 66.7 420 60 420 60 413.3 60 406.7 60 400ZM100 400C106.7 400 113.3 400 120 400 120 406.7 120 413.3 120 420 113.3 420 106.7 420 100 420 100 413.3 100 406.7 100 400ZM600 400C606.7 400 613.3 400 620 400 620 406.7 620 413.3 620 420 613.3 420 606.7 420 600 420 600 413.3 600 406.7 600 400ZM640 400C653.3 400 666.7 400 680 400 680 406.7 680 413.3 680 420 673.3 420 666.7 420 660 420 660 426.7 660 433.3 660 440 653.3 440 646.7 440 640 440 640 446.7 640 453.3 640 460 626.7 460 613.3 460 600 460 600 453.3 600 446.7 600 440 606.7 440 613.3 440 620 440 620 433.3 620 426.7 620 420 626.7 420 633.3 420 640 420 640 413.3 640 406.7 640 400ZM40 420C46.7 420 53.3 420 60 420 60 426.7 60 433.3 60 440 66.7 440 73.3 440 80 440 80 446.7 80 453.3 80 460 86.7 460 93.3 460 100 460 100 453.3 100 446.7 100 440 106.7 440 113.3 440 120 440 120 446.7 120 453.3 120 460 126.7 460 133.3 460 140 460 140 466.7 140 473.3 140 480 113.3 480 86.7 480 60 480 60 500 60 520 60 540 53.3 540 46.7 540 40 540 40 500 40 460 40 420ZM120 420C126.7 420 133.3 420 140 420 140 426.7 140 433.3 140 440 133.3 440 126.7 440 120 440 120 433.3 120 426.7 120 420ZM680 420C686.7 420 693.3 420 700 420 700 426.7 700 433.3 700 440 693.3 440 686.7 440 680 440 680 433.3 680 426.7 680 420ZM140 440C153.3 440 166.7 440 180 440 180 446.7 180 453.3 180 460 166.7 460 153.3 460 140 460 140 453.3 140 446.7 140 440ZM560 460C566.7 460 573.3 460 580 460 580 466.7 580 473.3 580 480 573.3 480 566.7 480 560 480 560 473.3 560 466.7 560 460ZM680 460C686.7 460 693.3 460 700 460 700 466.7 700 473.3 700 480 693.3 480 686.7 480 680 480 680 473.3 680 466.7 680 460ZM160 480C173.3 480 186.7 480 200 480 200 486.7 200 493.3 200 500 186.7 500 173.3 500 160 500 160 493.3 160 486.7 160 480ZM220 480C226.7 480 233.3 480 240 480 240 493.3 240 506.7 240 520 233.3 520 226.7 520 220 520 220 506.7 220 493.3 220 480ZM580 480C586.7 480 593.3 480 600 480 600 486.7 600 493.3 600 500 593.3 500 586.7 500 580 500 580 493.3 580 486.7 580 480ZM80 500C86.7 500 93.3 500 100 500 100 506.7 100 513.3 100 520 93.3 520 86.7 520 80 520 80 513.3 80 506.7 80 500ZM120 500C126.7 500 133.3 500 140 500 140 506.7 140 513.3 140 520 133.3 520 126.7 520 120 520 120 513.3 120 506.7 120 500ZM260 500C266.7 500 273.3 500 280 500 280 506.7 280 513.3 280 520 273.3 520 266.7 520 260 520 260 513.3 260 506.7 260 500ZM140 520C166.7 520 193.3 520 220 520 220 526.7 220 533.3 220 540 240 540 260 540 280 540 280 573.3 280 606.7 280 640 273.3 640 266.7 640 260 640 260 626.7 260 613.3 260 600 253.3 600 246.7 600 240 600 240 586.7 240 573.3 240 560 226.7 560 213.3 560 200 560 200 553.3 200 546.7 200 540 180 540 160 540 140 540 140 533.3 140 526.7 140 520ZM300 520C306.7 520 313.3 520 320 520 320 540 320 560 320 580 313.3 580 306.7 580 300 580 300 560 300 540 300 520ZM340 520C346.7 520 353.3 520 360 520 360 526.7 360 533.3 360 540 353.3 540 346.7 540 340 540 340 533.3 340 526.7 340 520ZM40 560C86.7 560 133.3 560 180 560 180 606.7 180 653.3 180 700 133.3 700 86.7 700 40 700 40 653.3 40 606.7 40 560M60 580C60 613.3 60 646.7 60 680 93.3 680 126.7 680 160 680 160 646.7 160 613.3 160 580 126.7 580 93.3 580 60 580ZM560 560C566.7 560 573.3 560 580 560 580 566.7 580 573.3 580 580 573.3 580 566.7 580 560 580 560 573.3 560 566.7 560 560ZM80 600C100 600 120 600 140 600 140 620 140 640 140 660 120 660 100 660 80 660 80 640 80 620 80 600ZM200 600C206.7 600 213.3 600 220 600 220 606.7 220 613.3 220 620 226.7 620 233.3 620 240 620 240 626.7 240 633.3 240 640 233.3 640 226.7 640 220 640 220 646.7 220 653.3 220 660 213.3 660 206.7 660 200 660 200 640 200 620 200 600ZM320 600C333.3 600 346.7 600 360 600 360 606.7 360 613.3 360 620 353.3 620 346.7 620 340 620 340 640 340 660 340 680 333.3 680 326.7 680 320 680 320 673.3 320 666.7 320 660 313.3 660 306.7 660 300 660 300 646.7 300 633.3 300 620 306.7 620 313.3 620 320 620 320 613.3 320 606.7 320 600ZM660 600C666.7 600 673.3 600 680 600 680 606.7 680 613.3 680 620 673.3 620 666.7 620 660 620 660 613.3 660 606.7 660 600ZM380 620C386.7 620 393.3 620 400 620 400 633.3 400 646.7 400 660 406.7 660 413.3 660 420 660 420 673.3 420 686.7 420 700 413.3 700 406.7 700 400 700 400 693.3 400 686.7 400 680 386.7 680 373.3 680 360 680 360 673.3 360 666.7 360 660 366.7 660 373.3 660 380 660 380 646.7 380 633.3 380 620ZM420 620C426.7 620 433.3 620 440 620 440 626.7 440 633.3 440 640 433.3 640 426.7 640 420 640 420 633.3 420 626.7 420 620ZM680 620C686.7 620 693.3 620 700 620 700 626.7 700 633.3 700 640 693.3 640 686.7 640 680 640 680 633.3 680 626.7 680 620ZM240 640C246.7 640 253.3 640 260 640 260 646.7 260 653.3 260 660 253.3 660 246.7 660 240 660 240 653.3 240 646.7 240 640ZM540 640C553.3 640 566.7 640 580 640 580 646.7 580 653.3 580 660 573.3 660 566.7 660 560 660 560 673.3 560 686.7 560 700 533.3 700 506.7 700 480 700 480 686.7 480 673.3 480 660 493.3 660 506.7 660 520 660 520 666.7 520 673.3 520 680 526.7 680 533.3 680 540 680 540 666.7 540 653.3 540 640ZM220 660C226.7 660 233.3 660 240 660 240 673.3 240 686.7 240 700 233.3 700 226.7 700 220 700 220 686.7 220 673.3 220 660ZM580 660C586.7 660 593.3 660 600 660 600 666.7 600 673.3 600 680 593.3 680 586.7 680 580 680 580 673.3 580 666.7 580 660ZM300 680C306.7 680 313.3 680 320 680 320 686.7 320 693.3 320 700 313.3 700 306.7 700 300 700 300 693.3 300 686.7 300 680ZM340 680C346.7 680 353.3 680 360 680 360 686.7 360 693.3 360 700 353.3 700 346.7 700 340 700 340 693.3 340 686.7 340 680ZM440 680C446.7 680 453.3 680 460 680 460 686.7 460 693.3 460 700 453.3 700 446.7 700 440 700 440 693.3 440 686.7 440 680ZM660 680C666.7 680 673.3 680 680 680 680 686.7 680 693.3 680 700 673.3 700 666.7 700 660 700 660 693.3 660 686.7 660 680Z"/></svg>