<?xml version="1.0" standalone="no"?>
<!DOCTYPE svg PUBLIC "-//W3C//DTD SVG 20010904//EN"
 "http://www.w3.org/TR/2001/REC-SVG-20010904/DTD/svg10.dtd">
<svg version="1.0" xmlns="http://www.w3.org/2000/svg"
 width="16.000000pt" height="16.000000pt" viewBox="0 0 16.000000 16.000000"
 preserveAspectRatio="xMidYMid meet">
<metadata>
Created by potrace 1.11, written by Peter Selinger 2001-2013
</metadata>
<g transform="translate(0.000000,16.000000) scale(0.025000,-0.025000)"
fill="#000000" stroke="none">
<path d="M240 630 c0 -5 -9 -10 -20 -10 -11 0 -20 -4 -20 -10 0 -5 -7 -10 -16
-10 -9 0 -29 -13 -44 -30 -15 -16 -33 -30 -39 -30 -7 0 -23 -11 -36 -25 -23
-23 -25 -31 -25 -130 0 -63 -4 -105 -10 -105 -5 0 -10 -9 -10 -20 0 -11 -4
-20 -10 -20 -6 0 -10 -27 -10 -60 0 -33 4 -60 10 -60 6 0 10 -7 10 -15 0 -20
45 -65 65 -65 8 0 15 -4 15 -10 0 -5 14 -10 30 -10 17 0 30 -4 30 -10 0 -6 37
-10 90 -10 53 0 90 4 90 10 0 6 14 10 30 10 17 0 30 5 30 10 0 6 7 10 15 10
20 0 105 85 105 105 0 8 5 15 10 15 6 0 10 9 10 20 0 11 5 20 10 20 6 0 10 7
10 16 0 9 14 29 30 44 16 15 30 35 30 44 0 9 5 16 10 16 6 0 10 27 10 60 0 33
-4 60 -10 60 -5 0 -10 7 -10 16 0 9 -13 29 -30 44 -16 15 -30 33 -30 39 0 17
-47 61 -65 61 -8 0 -15 5 -15 10 0 6 -9 10 -20 10 -11 0 -20 5 -20 10 0 6 -40
10 -100 10 -60 0 -100 -4 -100 -10z m-50 -130 c8 -11 21 -20 30 -20 9 0 22 9
30 20 15 21 70 28 70 10 0 -5 7 -10 16 -10 20 0 44 -24 44 -44 0 -9 5 -16 10
-16 6 0 10 -27 10 -60 0 -33 -4 -60 -10 -60 -5 0 -10 -7 -10 -16 0 -9 -10 -25
-21 -35 l-22 -19 32 -29 c17 -16 31 -39 31 -50 0 -25 -62 -91 -85 -91 -8 0
-15 -4 -15 -10 0 -5 -13 -10 -30 -10 -16 0 -30 -4 -30 -10 0 -5 -13 -10 -30
-10 -16 0 -30 5 -30 10 0 6 -13 10 -30 10 -16 0 -30 5 -30 10 0 6 -7 10 -15
10 -20 0 -65 45 -65 65 0 8 9 15 20 15 11 0 20 -4 20 -10 0 -5 9 -10 20 -10
11 0 20 -4 20 -10 0 -6 27 -10 60 -10 33 0 60 4 60 10 0 6 9 10 20 10 11 0 20
5 20 10 0 6 9 10 20 10 13 0 20 7 20 20 0 13 -7 20 -20 20 -11 0 -20 -4 -20
-10 0 -5 -9 -10 -20 -10 -11 0 -20 -4 -20 -10 0 -6 -27 -10 -60 -10 -33 0 -60
4 -60 10 0 6 -9 10 -20 10 -11 0 -20 5 -20 10 0 6 -9 10 -20 10 -13 0 -20 7
-20 20 0 13 7 20 20 20 13 0 20 7 20 19 0 11 6 22 13 25 10 5 10 7 0 12 -9 4
-13 32 -13 90 0 74 3 88 23 109 27 29 68 32 87 5z m376 -34 c8 -8 14 -22 14
-30 0 -9 5 -16 10 -16 6 0 10 -18 10 -40 0 -22 -4 -40 -10 -40 -5 0 -10 -7
-10 -16 0 -26 -26 -44 -64 -44 -29 0 -36 4 -36 20 0 12 7 20 16 20 25 0 44 26
44 60 0 34 -19 60 -44 60 -9 0 -16 8 -16 20 0 16 7 20 36 20 19 0 42 -6 50
-14z m-60 -60 c8 -8 14 -20 14 -26 0 -12 -24 -40 -34 -40 -3 0 -6 18 -6 40 0
43 4 47 26 26z"/>
<path d="M123 435 c-31 -33 -30 -79 2 -110 24 -25 75 -35 75 -15 0 6 9 10 20
10 11 0 20 -4 20 -10 0 -20 51 -10 75 15 33 32 33 78 0 110 -24 25 -75 35 -75
15 0 -5 -9 -10 -20 -10 -11 0 -20 5 -20 10 0 19 -55 9 -77 -15z m77 -55 c0
-58 -1 -60 -26 -60 -34 0 -54 22 -54 60 0 39 17 59 53 60 26 0 27 -1 27 -60z
m106 46 c8 -8 14 -29 14 -46 0 -53 -51 -80 -86 -46 -17 18 -18 72 -1 91 16 19
55 19 73 1z"/>
<path d="M140 380 c0 -13 7 -20 20 -20 13 0 20 7 20 20 0 13 -7 20 -20 20 -13
0 -20 -7 -20 -20z"/>
<path d="M240 380 c0 -13 7 -20 20 -20 13 0 20 7 20 20 0 13 -7 20 -20 20 -13
0 -20 -7 -20 -20z"/>
<path d="M120 260 c0 -13 7 -20 20 -20 13 0 20 7 20 20 0 13 -7 20 -20 20 -13
0 -20 -7 -20 -20z"/>
<path d="M200 260 c0 -13 7 -20 20 -20 13 0 20 7 20 20 0 13 -7 20 -20 20 -13
0 -20 -7 -20 -20z"/>
</g>
</svg>
